<?xml version="1.0" encoding="UTF-8"?>
<svg id="Layer_1" xmlns="http://www.w3.org/2000/svg" viewBox="0 0 1080 1080">
  <defs>
    <style>
      .cls-1 {
        fill: #b09d64;
      }

      .cls-2 {
        fill: #006a63;
      }
    </style>
  </defs>
  <path class="cls-2" d="M739.5,624.01l18.52-57.79,21.28,57.79h-39.8ZM822.91,653.95h-11.07l-45.51-122.34-37.55,122.34h-10.56v1.56h23.36v-1.56h-11.6l9.17-28.55h40.66l10.56,28.55h-10.73v1.56h43.26v-1.56ZM645.21,588.37v-52.43h9.52c4.15,0,7.64,1.21,10.47,3.63,2.83,2.42,4.96,5.62,6.4,9.6,1.44,3.98,2.16,8.34,2.16,13.06s-.35,9.08-1.04,13.06c-.69,3.98-2.1,7.15-4.24,9.52-2.14,2.37-5.34,3.55-9.6,3.55h-13.67ZM712.35,653.95h-3.81c-2.89,0-5.39-1.21-7.53-3.64-2.14-2.42-3.2-5.36-3.2-8.82v-25.78c0-5.42-1.27-10.09-3.81-14.02-4.96-7.72-13.85-12.17-26.65-13.32,3.11-.46,6.2-1.18,9.26-2.16,3.06-.98,5.45-2.04,7.18-3.2,3.58-2.54,6.08-5.65,7.53-9.34,1.44-3.69,2.16-7.5,2.16-11.42,0-18.46-11.07-27.69-33.22-27.69h-45.86v1.39h10.38v118.01h-10.38v1.56h40.32v-1.56h-9.52v-64.02h20.76c3.46,0,6.29,1.39,8.48,4.16,2.19,2.77,3.29,6.11,3.29,10.03v29.25c.23,6.23,2.14,11.42,5.71,15.57,3.58,4.15,8.02,6.34,13.33,6.57h15.57v-1.56ZM601.61,610h-1.21v1.04c0,7.38-1.21,14.33-3.63,20.85-2.42,6.52-6.23,11.83-11.42,15.92-5.19,4.1-11.83,6.14-19.9,6.14h-20.59v-60.04h7.61c6.46.23,11.36,3.11,14.71,8.65,2.42,4.15,3.98,8.6,4.67,13.33l.35,2.42h1.04v-49.14h-1.04l-.17,3.98c-.35,6.46-2.83,11.59-7.44,15.4-2.77,2.31-6.69,3.63-11.77,3.98h-7.96v-56.58h17.3c11.65,0,20.56,3.89,26.73,11.68,6.17,7.79,9.26,17.97,9.26,30.54h1.21v-43.6h-85.31v1.39h10.38v118.01h-10.38v1.56h87.56v-45.51ZM499.86,535.94h10.38v-1.39h-23.36v1.39h11.42l-27.34,89.29-32.88-89.29h10.73v-1.39h-43.26v1.39h11.08l45.33,122.33,37.89-122.33ZM401.93,653.95h-10.56v-118.01h10.56v-1.39h-41.7v1.39h10.73v118.01h-10.73v1.56h41.7v-1.56ZM287.9,588.37v-52.43h9.52c4.15,0,7.64,1.21,10.47,3.63,2.83,2.42,4.96,5.62,6.4,9.6,1.44,3.98,2.16,8.34,2.16,13.06s-.35,9.08-1.04,13.06c-.69,3.98-2.1,7.15-4.24,9.52-2.14,2.37-5.34,3.55-9.6,3.55h-13.67ZM355.03,653.95h-3.81c-2.89,0-5.4-1.21-7.53-3.64-2.14-2.42-3.2-5.36-3.2-8.82v-25.78c0-5.42-1.27-10.09-3.81-14.02-4.96-7.72-13.85-12.17-26.65-13.32,3.12-.46,6.2-1.18,9.26-2.16,3.06-.98,5.45-2.04,7.18-3.2,3.57-2.54,6.08-5.65,7.53-9.34,1.44-3.69,2.16-7.5,2.16-11.42,0-18.46-11.08-27.69-33.22-27.69h-45.85v1.39h10.38v118.01h-10.38v1.56h40.32v-1.56h-9.52v-64.02h20.76c3.46,0,6.29,1.39,8.48,4.16,2.19,2.77,3.29,6.11,3.29,10.03v29.25c.23,6.23,2.13,11.42,5.71,15.57,3.58,4.15,8.02,6.34,13.32,6.57h15.57v-1.56Z"/>
  <path class="cls-1" d="M463.52,408.64c1.25,2.06,2.09,3.39,2.89,4.74,3.08,5.23,2.55,7.84-2.39,11.32-4.37,3.07-5.91,3.11.17,7.07,4.92,3.2,5.37,5.92,2.32,10.97q-3.12,5.15,3,6.45c6.83,1.45,7.89,2.86,7.45,9.78-.3,4.69-.2,4.82,4.59,4.49,12.38-.87,21.89-6.85,29.37-16.49,1.69-2.18,3.39-4.4,5.38-6.29,6.31-5.96,37.06-5.91,43.23.17,2.71,2.67,4.92,5.85,7.42,8.75,7.29,8.49,16.47,13.29,27.71,13.86,4.22.22,4.45-.12,4.05-4.18-.69-6.96.51-8.6,7.39-10.11q6.02-1.32,2.91-6.61c-2.66-4.53-2.29-7.2,1.33-10.04,1.73-1.35,3.4-2.78,5.09-4.18-1.69-1.52-3.32-3.09-5.07-4.53-3.47-2.89-3.98-5.17-1.84-9.2.7-1.31,1.56-2.54,2.32-3.81.96-1.6.52-2.6-1.32-2.97-1.77-.37-3.55-.67-5.3-1.13-4.77-1.24-6.3-3.55-5.65-8.38.09-.74.13-1.48.26-2.21.43-2.41-.6-3.15-2.96-3.15-9.24.01-17.42,3.02-24.22,9.14-3.68,3.31-7,7.19-9.81,11.27-5.87,8.51-42.2,8.73-47.95-.04-1.63-2.48-3.57-4.78-5.54-7-7.26-8.15-16.2-12.97-27.27-13.32-4.38-.14-4.38-.06-4.1,4.23.45,6.91-.85,8.57-7.69,9.96-1.73.35-3.41.87-5.75,1.47M480.43,467.93h-.32c-7.42.12-8.73-1.35-7.83-8.81.51-4.3.29-4.59-4.01-5.49-1.56-.33-3.15-.6-4.65-1.11-4.35-1.47-5.51-4.38-3.47-8.5,1.07-2.16,3.39-4.56,2.98-6.36-.41-1.84-3.49-3.07-5.39-4.57-3.87-3.08-3.97-6.33-.21-9.54,1.92-1.65,5.14-2.9,5.6-4.84.44-1.86-1.98-4.36-3.05-6.62-1.91-4.02-.73-6.84,3.49-8.21,1.81-.59,3.7-1.01,5.58-1.33,2.57-.43,3.53-1.67,3.26-4.39-.92-9.21.19-10.27,9.37-9.75,12.48.71,22.73,5.8,30.68,15.46,1.42,1.73,2.98,3.38,4.14,5.27,4.95,8.1,37.68,8,42.46-.04,1.4-2.35,3.35-4.4,5.17-6.48,9.2-10.52,21-14.76,34.75-14.27,2.73.1,4.21,1.46,4.45,4.01.17,1.78.15,3.64-.2,5.39-.6,2.99.57,4.36,3.43,4.86,2.09.37,4.19.83,6.16,1.58,3.43,1.31,4.44,3.77,2.98,7.16-.75,1.75-1.76,3.41-2.85,4.97-1.24,1.79-1,3.07.83,4.21,1.35.84,2.67,1.75,3.92,2.75,4.27,3.43,4.27,6.49.03,9.85-1.33,1.05-2.75,2.01-4.17,2.95-1.54,1.01-1.83,2.14-.76,3.72,1.07,1.58,2.1,3.22,2.9,4.95,1.64,3.57.49,6.3-3.2,7.56-2.1.72-4.31,1.15-6.49,1.63-2.07.46-3.03,1.44-2.85,3.77.8,10.16.38,10.62-9.69,10.15-13.44-.63-23.89-6.87-31.98-17.39-.84-1.1-1.81-2.12-2.52-3.29-4.94-8.07-37.38-7.91-42.22-.16-1.56,2.5-3.66,4.69-5.63,6.92-8.14,9.22-18.47,13.7-30.7,14.01"/>
  <path class="cls-1" d="M518.53,427.72c-.94-.36-1.85-.77-2.81-1.06-5.4-1.63-10.8-3.23-16.2-4.83-1.63-.49-3.19-1.14-2.59-3.25.61-2.13,2.3-1.82,3.92-1.33,8.14,2.48,16.24,5.1,24.44,7.35,2.2.6,22.94.58,25.15-.02,8-2.2,15.89-4.75,23.82-7.19,1.67-.51,3.55-1.22,4.33,1.01.84,2.42-1.08,3.03-2.94,3.56-5.21,1.51-10.41,3.07-15.6,4.63-1.05.32-2.06.75-3.08,1.12,0,.27,0,.55,0,.82,1.45.51,2.87,1.08,4.34,1.52,4.99,1.51,9.98,2.99,14.99,4.43,1.79.51,3.15,1.59,2.24,3.35-.42.81-2.54,1.42-3.61,1.12-8.29-2.32-16.48-5.01-24.77-7.31-2.01-.56-22.53-.61-24.53-.06-8.19,2.27-16.3,4.87-24.44,7.34-1.67.51-3.52,1.13-4.16-1.26-.61-2.29,1.18-2.86,2.89-3.36,5.2-1.52,10.41-3.05,15.6-4.6.99-.3,1.95-.69,2.92-1.04.03-.31.06-.63.09-.94"/>
  <path class="cls-1" d="M557.31,353.79c-2.06,1.25-3.39,2.09-4.74,2.89-5.23,3.08-7.84,2.55-11.32-2.39-3.07-4.37-3.11-5.91-7.07.17-3.2,4.92-5.92,5.37-10.97,2.32q-5.15-3.12-6.45,3c-1.45,6.83-2.86,7.9-9.78,7.45-4.69-.3-4.82-.2-4.49,4.59.87,12.38,6.85,21.89,16.49,29.37,2.18,1.69,4.4,3.39,6.29,5.38,5.96,6.31,5.91,37.06-.17,43.23-2.67,2.71-5.85,4.92-8.75,7.42-8.49,7.29-13.29,16.47-13.86,27.71-.22,4.22.12,4.45,4.18,4.05,6.96-.69,8.6.51,10.11,7.39q1.32,6.02,6.61,2.91c4.53-2.66,7.2-2.28,10.04,1.33,1.35,1.73,2.78,3.4,4.18,5.09,1.52-1.69,3.09-3.32,4.53-5.07,2.88-3.47,5.17-3.99,9.2-1.84,1.31.7,2.54,1.56,3.81,2.32,1.6.96,2.6.52,2.97-1.32.37-1.77.67-3.55,1.13-5.3,1.24-4.77,3.55-6.3,8.38-5.66.74.1,1.48.13,2.21.26,2.41.43,3.15-.6,3.15-2.96-.01-9.24-3.02-17.42-9.14-24.22-3.31-3.68-7.19-7-11.27-9.81-8.51-5.87-8.73-42.2.04-47.95,2.48-1.63,4.78-3.57,7-5.54,8.15-7.26,12.97-16.2,13.32-27.27.14-4.38.06-4.38-4.23-4.1-6.91.45-8.57-.85-9.96-7.69-.35-1.73-.87-3.41-1.47-5.75M498.03,370.69v-.32c-.12-7.42,1.35-8.73,8.81-7.83,4.3.51,4.59.29,5.49-4.01.33-1.56.6-3.15,1.11-4.65,1.47-4.35,4.38-5.51,8.5-3.47,2.16,1.07,4.56,3.39,6.36,2.98,1.84-.41,3.07-3.49,4.57-5.39,3.08-3.87,6.32-3.97,9.54-.21,1.65,1.93,2.9,5.14,4.84,5.6,1.86.44,4.36-1.98,6.62-3.05,4.02-1.91,6.84-.73,8.21,3.49.59,1.81,1.01,3.7,1.33,5.58.43,2.57,1.67,3.53,4.39,3.26,9.21-.92,10.27.19,9.75,9.37-.71,12.48-5.8,22.73-15.46,30.68-1.73,1.42-3.38,2.98-5.27,4.14-8.1,4.95-8,37.68.04,42.47,2.35,1.4,4.4,3.35,6.48,5.17,10.52,9.2,14.76,21,14.27,34.75-.1,2.73-1.46,4.21-4.01,4.45-1.78.17-3.64.15-5.39-.2-2.99-.6-4.36.57-4.86,3.43-.37,2.09-.83,4.19-1.58,6.16-1.31,3.43-3.77,4.44-7.16,2.98-1.75-.75-3.41-1.76-4.97-2.85-1.79-1.24-3.07-1-4.21.83-.84,1.35-1.75,2.67-2.75,3.92-3.43,4.27-6.49,4.27-9.85.03-1.05-1.33-2.01-2.75-2.95-4.17-1.01-1.54-2.14-1.83-3.72-.76-1.58,1.07-3.22,2.1-4.95,2.9-3.57,1.64-6.3.49-7.56-3.2-.72-2.1-1.15-4.31-1.63-6.49-.46-2.07-1.44-3.03-3.77-2.85-10.16.8-10.62.38-10.15-9.7.63-13.44,6.87-23.89,17.39-31.98,1.1-.84,2.12-1.81,3.29-2.52,8.07-4.94,7.91-37.38.16-42.22-2.5-1.56-4.69-3.66-6.92-5.63-9.22-8.14-13.7-18.47-14.01-30.7"/>
  <path class="cls-1" d="M538.24,408.8c.36-.94.77-1.85,1.06-2.81,1.63-5.4,3.23-10.8,4.83-16.2.49-1.63,1.14-3.19,3.25-2.59,2.13.61,1.82,2.3,1.33,3.92-2.48,8.14-5.1,16.24-7.35,24.44-.6,2.2-.58,22.94.02,25.15,2.2,8,4.75,15.89,7.19,23.82.51,1.67,1.22,3.55-1.01,4.33-2.42.84-3.03-1.08-3.56-2.94-1.51-5.21-3.07-10.41-4.63-15.6-.32-1.05-.75-2.06-1.12-3.08-.27,0-.55,0-.82,0-.51,1.45-1.08,2.87-1.52,4.34-1.51,4.99-2.99,9.98-4.43,14.99-.51,1.79-1.59,3.15-3.35,2.24-.81-.42-1.42-2.54-1.12-3.61,2.32-8.29,5.01-16.48,7.31-24.77.56-2.01.61-22.53.06-24.53-2.27-8.19-4.87-16.3-7.34-24.44-.51-1.67-1.13-3.52,1.26-4.16,2.29-.61,2.86,1.17,3.36,2.89,1.52,5.2,3.05,10.4,4.6,15.6.3.99.69,1.95,1.04,2.92.32.03.63.06.94.09"/>
  <path class="cls-1" d="M682.4,707.29c.2.38.49.57.89.57s.79-.24,1.18-.72c.26-.28.66-.79,1.21-1.52.55-.73,1.14-1.49,1.78-2.26.64-.77,1.26-1.5,1.88-2.16.62-.66,1.12-1.1,1.48-1.29-.11.17-.26.47-.45.89-.18.42-.36.89-.53,1.4-.17.51-.31,1.03-.42,1.57-.11.54-.14,1.01-.09,1.44.11.59.35,1.01.7,1.27.35.26.75.38,1.21.38.65,0,1.24-.2,1.78-.59.82-.56,1.55-1.16,2.2-1.78.65-.62,1.28-1.27,1.89-1.95.6-.68,1.21-1.38,1.82-2.09.6-.72,1.26-1.46,1.97-2.22.14-.17.16-.33.06-.49-.1-.15-.23-.23-.4-.23-.14,0-.26.06-.34.17-.71.79-1.46,1.65-2.27,2.58-.8.93-1.59,1.79-2.35,2.56-.76.78-1.45,1.43-2.07,1.95-.62.52-1.1.78-1.44.78-.23,0-.38-.14-.47-.42-.06-.26-.03-.61.09-1.08.11-.47.27-.96.47-1.48.2-.52.41-1.05.63-1.57.23-.52.4-.95.51-1.29.22-.65.25-1.21.08-1.69-.17-.48-.54-.72-1.1-.72-.42,0-.88.14-1.35.43-.28.14-.61.42-1,.85-.38.42-.8.93-1.27,1.52-.47.6-.97,1.24-1.5,1.93-.54.69-1.09,1.4-1.65,2.14.62-1.19,1.24-2.32,1.86-3.39.54-.9,1.09-1.82,1.65-2.75.56-.93,1.06-1.64,1.48-2.12.28-.31.31-.64.09-1-.23-.35-.54-.53-.93-.53-.45,0-.85.26-1.19.76-.45.62-.96,1.38-1.52,2.29s-1.13,1.85-1.69,2.84c-.56.99-1.11,1.99-1.63,3.01-.52,1.01-.95,1.95-1.29,2.79-.17.45-.15.87.04,1.25M670.52,700.75c.32-.54.7-1.05,1.12-1.52.43-.48.88-.88,1.36-1.21.48-.32.95-.49,1.4-.49.4,0,.69.14.89.42.2.28.26.64.17,1.06-.09.43-.35.89-.78,1.4-.44.51-1.1.97-1.97,1.4-.43.2-.82.33-1.19.4-.37.07-.68.11-.93.11-.31,0-.58-.04-.8-.13.17-.43.42-.9.74-1.44M671.07,703.35c.58-.04,1.16-.17,1.74-.38.58-.21,1.14-.51,1.67-.89.54-.38,1-.87,1.4-1.46.48-.65.78-1.27.91-1.86.13-.59.11-1.12-.04-1.59-.15-.47-.42-.83-.8-1.1-.38-.27-.87-.4-1.46-.4-.42,0-.9.09-1.42.26-.52.17-1.08.45-1.67.85-1.16.73-2.08,1.67-2.78,2.82-.69,1.14-1.09,2.29-1.21,3.45-.11,1.16.1,2.23.64,3.22s1.44,1.71,2.71,2.16c.26.08.52.16.78.21.27.05.54.08.83.08.85,0,1.71-.19,2.58-.55.88-.37,1.74-.85,2.61-1.44.86-.59,1.7-1.26,2.52-2.01.82-.75,1.59-1.52,2.31-2.31.72-.79,1.38-1.55,1.97-2.29.59-.73,1.09-1.37,1.48-1.91.14-.23.18-.41.11-.55-.07-.14-.19-.21-.36-.21s-.32.09-.47.26c-.23.31-.59.76-1.08,1.35-.49.59-1.06,1.25-1.71,1.97-.65.72-1.36,1.45-2.14,2.18-.78.73-1.58,1.4-2.41,2.01-.83.6-1.67,1.11-2.5,1.5-.83.39-1.63.59-2.39.59-.48,0-.93-.08-1.35-.26-.93-.39-1.54-.92-1.82-1.57-.28-.65-.37-1.38-.25-2.2.51.08,1.05.11,1.63.06M653.8,685.82c1.09-1.96,2.23-3.92,3.43-5.86,1.2-1.95,2.42-3.82,3.66-5.61,1.24-1.79,2.46-3.37,3.66-4.72,1.2-1.35,2.36-2.44,3.49-3.26,1.13-.82,2.17-1.23,3.13-1.23.39,0,.72.06.97.17,1.01.39,1.67,1.16,1.97,2.29.3,1.13.22,2.48-.21,4.04-.44,1.57-1.24,3.27-2.42,5.1-1.17,1.84-2.72,3.66-4.63,5.46-1.92,1.81-4.21,3.52-6.88,5.13-2.67,1.61-5.71,2.96-9.12,4.06.87-1.75,1.86-3.61,2.94-5.57M660.17,688.53c2.94-1.74,5.45-3.61,7.56-5.61,2.1-2.01,3.8-4.04,5.08-6.1,1.29-2.06,2.14-3.99,2.56-5.78.43-1.79.41-3.35-.04-4.68-.45-1.33-1.35-2.23-2.71-2.71-.45-.17-.93-.26-1.44-.26-1.33,0-2.74.52-4.24,1.57-1.5,1.05-3.02,2.45-4.57,4.21-1.55,1.76-3.11,3.79-4.68,6.08-1.57,2.29-3.07,4.68-4.51,7.18-1.44,2.5-2.79,5.02-4.06,7.56-1.27,2.54-2.39,4.92-3.35,7.14-.96,2.22-1.75,4.21-2.35,5.97-.61,1.76-.98,3.11-1.12,4.04-.05.4.05.7.32.91.27.21.54.32.83.32.34,0,.55-.11.64-.34.68-1.58,1.4-2.99,2.16-4.23.76-1.24,1.56-2.36,2.39-3.36.83-1,1.69-1.9,2.58-2.69.89-.79,1.81-1.52,2.77-2.2.82-.59,1.54-.89,2.16-.89.28,0,.47.11.55.34.08.23.01.62-.21,1.19-.39.93-.88,2-1.46,3.2-.58,1.2-1.07,2.4-1.48,3.6-.41,1.2-.66,2.34-.74,3.43-.09,1.09.17,2.01.76,2.77.65.82,1.5,1.23,2.54,1.23s2.15-.37,3.39-1.1c1.24-.73,2.47-1.69,3.68-2.86,1.21-1.17,2.37-2.48,3.45-3.92,1.09-1.44,2.01-2.88,2.77-4.32.17-.34.26-.6.26-.78s-.06-.29-.17-.32c-.11-.03-.26.01-.42.13-.17.11-.33.3-.47.55-.68,1.24-1.55,2.54-2.63,3.89-1.07,1.35-2.19,2.6-3.35,3.73-1.16,1.13-2.28,2.06-3.39,2.79-1.1.73-2,1.1-2.71,1.1-.2,0-.41-.06-.64-.17-.68-.37-1-.98-.97-1.84.03-.86.23-1.84.59-2.94.37-1.1.83-2.26,1.4-3.47.56-1.21,1.05-2.37,1.46-3.45.41-1.08.66-2.04.74-2.88.09-.83-.16-1.42-.72-1.76-.28-.17-.61-.25-.97-.25-.68,0-1.47.25-2.37.76-.9.51-1.83,1.15-2.79,1.92-.96.78-1.91,1.63-2.86,2.54-.95.92-1.8,1.79-2.56,2.61-.09.08-.07-.04.04-.38.11-.34.32-.85.61-1.52.3-.68.67-1.5,1.12-2.46.45-.96.97-2.03,1.57-3.22,3.72-1.1,7.06-2.52,9.99-4.25M638.23,696.83c.09-.27.11-.56.09-.89-.03-.32-.14-.64-.34-.93-.2-.3-.54-.51-1.01-.66-.48-.14-.92-.21-1.31-.21-.73,0-1.5.15-2.29.47-.79.31-1.53.74-2.22,1.29-.69.55-1.32,1.19-1.89,1.91-.56.72-.97,1.51-1.23,2.35-.31.93-.44,1.85-.38,2.75.06.9.27,1.7.66,2.39.38.69.93,1.25,1.63,1.67.71.43,1.55.64,2.54.64,1.33,0,2.61-.31,3.85-.93,1.24-.62,2.42-1.4,3.54-2.33,1.11-.93,2.14-1.95,3.07-3.05.93-1.1,1.75-2.13,2.46-3.09.11-.14.1-.3-.02-.47-.13-.17-.27-.25-.44-.25-.11,0-.21.06-.3.17-1.95,2.82-3.81,4.88-5.57,6.16-1.76,1.29-3.27,2.04-4.51,2.26-1.02.2-1.86.17-2.54-.08-.68-.25-1.18-.66-1.52-1.21-.34-.55-.52-1.19-.55-1.92-.03-.73.1-1.48.38-2.25.26-.71.61-1.35,1.06-1.95.45-.59.94-1.1,1.46-1.52.52-.42,1.05-.76,1.57-1,.52-.24.98-.36,1.37-.36.37,0,.64.1.81.3.11.11.2.28.25.51.06.23.11.4.17.51.14.25.31.37.51.36.2-.02.32-.05.38-.11.14-.08.25-.26.34-.53M629.47,671.02c.22-.17.41-.41.55-.72.11-.23.2-.47.26-.74.06-.27.08-.52.06-.74-.01-.23-.06-.42-.15-.57-.09-.15-.21-.23-.38-.23-.23,0-.49.16-.8.47-.48.54-1.33,1.64-2.54,3.3-1.21,1.67-2.61,3.67-4.19,6.01-2.74.54-5.35,1.08-7.83,1.63-2.49.55-4.72,1.08-6.69,1.59-.54.14-1.1.28-1.69.42-.59.14-1.17.27-1.74.4-.56.13-1.08.23-1.54.32-.47.08-.84.13-1.12.13-.43,0-.6-.1-.51-.3.06-.11-.02-.24-.23-.38-.21-.14-.49-.21-.83-.21-.22,0-.51.07-.85.21-.39.2-.63.47-.7.83-.07.35-.02.64.15.87.28.42.83.63,1.65.63.54,0,1.16-.07,1.86-.21.71-.14,1.43-.3,2.16-.47.37-.08,1.06-.25,2.09-.49,1.03-.24,2.29-.54,3.79-.89,1.5-.35,3.18-.75,5.06-1.18,1.88-.44,3.86-.88,5.95-1.33-1.35,2.09-2.76,4.33-4.21,6.73-1.46,2.4-2.85,4.83-4.19,7.28-1.34,2.45-2.57,4.88-3.69,7.28-1.11,2.4-2.02,4.63-2.71,6.71-.69,2.08-1.12,3.93-1.27,5.57-.15,1.63.06,2.92.66,3.85.62.96,1.44,1.44,2.46,1.44.93,0,1.99-.35,3.18-1.06,1.18-.71,2.42-1.63,3.7-2.78,1.29-1.14,2.58-2.43,3.87-3.87,1.3-1.44,2.55-2.9,3.75-4.38,1.2-1.48,2.3-2.92,3.3-4.32,1-1.4,1.84-2.6,2.52-3.62.14-.23.18-.42.1-.57-.07-.16-.18-.23-.32-.23-.23,0-.4.11-.51.34-1.78,2.71-3.64,5.22-5.57,7.54-1.93,2.31-3.78,4.32-5.55,6.01-1.76,1.69-3.37,3.03-4.81,4-1.44.97-2.57,1.46-3.39,1.46-.59,0-.97-.27-1.14-.8-.26-.76-.26-1.87,0-3.32.26-1.46.72-3.14,1.4-5.06.68-1.92,1.53-4.03,2.56-6.33,1.03-2.3,2.19-4.69,3.49-7.18,1.3-2.49,2.69-5.02,4.19-7.62,1.5-2.6,3.05-5.14,4.66-7.62,2.29-.48,4.62-.95,7.01-1.4,2.38-.45,4.72-.85,7.01-1.18,2.29-.34,4.47-.61,6.56-.83,2.09-.21,3.98-.32,5.67-.32.76,0,1.47.02,2.14.06.66.04,1.28.12,1.84.23.48.08.71,0,.68-.23s-.24-.43-.63-.57c-.88-.26-2.19-.38-3.94-.38-1.47,0-3.17.08-5.1.25-1.93.17-4.01.4-6.22.68-2.22.28-4.52.61-6.92,1-2.4.38-4.79.8-7.15,1.25.73-1.1,1.46-2.18,2.18-3.24.72-1.06,1.45-2.08,2.18-3.07.06.14.2.13.43-.04M597.14,695.73c-.15-.44-.47-.66-.95-.66-.17,0-.43.07-.76.21-.2.08-.55.44-1.06,1.06-.51.62-1.05,1.38-1.61,2.28-.56.9-1.09,1.89-1.57,2.96-.48,1.07-.77,2.11-.89,3.11-.11,1,.02,1.9.38,2.69.37.79,1.12,1.37,2.25,1.74.25.08.55.13.89.13.79,0,1.7-.25,2.73-.74,1.03-.49,2.09-1.11,3.18-1.84,1.09-.73,2.17-1.55,3.26-2.45,1.09-.9,2.08-1.76,2.99-2.58.9-.82,1.69-1.55,2.35-2.18.66-.64,1.12-1.05,1.37-1.25.11-.08.16-.19.15-.32-.01-.13-.06-.23-.13-.32-.07-.08-.16-.14-.27-.17-.11-.03-.23.01-.34.13-.39.37-.95.87-1.67,1.5-.72.64-1.54,1.33-2.45,2.08-.92.75-1.88,1.5-2.88,2.26-1,.76-1.99,1.46-2.96,2.09-.97.64-1.88,1.15-2.73,1.55-.85.39-1.57.59-2.16.59-.42,0-.75-.1-.97-.3-.51-.48-.75-1.13-.72-1.95.03-.82.23-1.72.61-2.69.38-.97.9-1.97,1.57-2.99.66-1.01,1.39-1.95,2.18-2.79.31-.34.39-.72.23-1.16M598.69,690.99c.05.19.16.35.31.49.16.14.32.25.51.32.18.07.33.08.44.02.22-.11.47-.29.74-.53.27-.24.54-.51.83-.8.28-.3.54-.59.76-.89.23-.3.38-.54.47-.74.14-.34.05-.68-.27-1.01-.32-.34-.66-.52-1-.55-.26-.06-.5.02-.74.21-.24.2-.48.45-.72.76-.24.31-.47.66-.7,1.06-.23.4-.42.78-.59,1.14-.09.17-.1.35-.04.53M550.26,703.54c-1.09.37-1.9.55-2.44.55-.31,0-.49-.07-.55-.21-.06-.14.07-.32.38-.55.65-.48,1.58-1.03,2.78-1.65,1.2-.62,2.63-1.1,4.3-1.44-.11.23-.22.46-.32.7-.1.24-.19.49-.27.74-1.5.88-2.79,1.5-3.87,1.87M556.68,699.99l.04-.08h.09l-.13.08ZM580.63,654.66c-.32.52-.83,1.32-1.5,2.39-.68,1.07-1.5,2.36-2.46,3.85-.96,1.5-1.99,3.12-3.09,4.87,1.44-2.51,2.77-4.74,3.98-6.69,1.21-1.95,2.32-3.57,3.3-4.87.17-.22.09-.08-.23.44M599.89,655.78c-.02-.45-.22-.68-.61-.68s-.83.23-1.31.68c-.28.25-.89.9-1.84,1.95-.95,1.04-2.12,2.36-3.53,3.94-1.41,1.58-3,3.37-4.76,5.38-1.76,2-3.61,4.09-5.53,6.25-1.92,2.16-3.87,4.34-5.87,6.54-1.99,2.2-3.9,4.31-5.72,6.31-1.82,2.01-3.51,3.85-5.08,5.53-1.57,1.68-2.91,3.07-4.04,4.17-.4.4-.78.77-1.17,1.12-.38.36-.77.69-1.17,1-.28-.03-.56-.03-.84-.02-.28.01-.57.02-.85.02,1.81-4.09,3.59-7.99,5.36-11.69,1.76-3.7,3.49-7.17,5.19-10.41,1.52-2.2,3.03-4.36,4.51-6.48,1.48-2.12,2.85-4.11,4.11-5.97,1.26-1.86,2.36-3.54,3.3-5.04.95-1.49,1.64-2.72,2.09-3.68.51-1.07.64-1.92.38-2.54-.26-.62-.71-.93-1.35-.93-.43,0-.9.16-1.42.49-.52.33-1.04.84-1.54,1.55-.65.9-1.45,2.15-2.39,3.75-.95,1.59-2,3.48-3.18,5.65-1.17,2.17-2.44,4.59-3.79,7.26-1.35,2.67-2.76,5.52-4.21,8.56-1.46,3.03-2.94,6.21-4.47,9.53-1.52,3.32-3.04,6.71-4.53,10.18-2.94.42-5.76,1.5-8.47,3.22-.87.57-1.51,1.14-1.91,1.72-.39.58-.57,1.1-.53,1.57.04.47.3.83.76,1.08.47.25,1.14.34,2.01.25,1.75-.2,3.63-.85,5.63-1.95-1.89,4.55-3.69,9.07-5.4,13.57-1.71,4.5-3.25,8.88-4.64,13.15-.14.39-.15.72-.04.97.11.25.28.38.51.38.37,0,.65-.3.84-.89,1.78-5.02,3.6-9.93,5.46-14.71,1.86-4.78,3.77-9.43,5.72-13.95.59-.39,1.19-.83,1.8-1.29.61-.47,1.23-.95,1.88-1.46,1.33.03,2.73.21,4.21.55,1.48.34,3.03.89,4.64,1.65,1.61.76,3.27,1.76,5,3.01,1.72,1.24,3.47,2.79,5.25,4.66,3.61,3.73,6.85,6.86,9.7,9.4,2.85,2.54,5.41,4.59,7.68,6.16,2.27,1.57,4.28,2.69,6.04,3.37,1.75.68,3.35,1.02,4.79,1.02.9,0,1.76-.12,2.56-.36.8-.24,1.57-.57,2.31-.99.54-.31.84-.67.93-1.08.09-.41-.06-.61-.42-.61-.31,0-.68.15-1.1.47-.99.71-2.16,1.06-3.51,1.06-1.75,0-3.7-.54-5.87-1.63-2.16-1.09-4.43-2.54-6.82-4.36-2.38-1.82-4.82-3.9-7.31-6.22-2.48-2.33-4.94-4.75-7.37-7.26-3.16-3.25-6.31-5.72-9.44-7.41-3.13-1.69-6.22-2.74-9.27-3.13,1.95-1.72,3.93-3.64,5.95-5.76,2.02-2.12,4.07-4.35,6.16-6.69,2.09-2.34,4.2-4.76,6.33-7.24,2.13-2.48,4.28-4.95,6.44-7.39,2.16-2.44,4.32-4.84,6.48-7.18,2.16-2.34,4.31-4.53,6.46-6.56.56-.54.84-1.03.83-1.48M515.23,707.29c.2.38.49.57.89.57s.79-.24,1.19-.72c.26-.28.66-.79,1.21-1.52.55-.73,1.14-1.49,1.78-2.26.64-.77,1.26-1.5,1.89-2.16.62-.66,1.12-1.1,1.48-1.29-.11.17-.26.47-.44.89-.18.42-.36.89-.53,1.4-.17.51-.31,1.03-.42,1.57-.11.54-.14,1.01-.09,1.44.11.59.34,1.01.7,1.27s.76.38,1.21.38c.65,0,1.24-.2,1.78-.59.82-.56,1.55-1.16,2.2-1.78.65-.62,1.28-1.27,1.88-1.95.61-.68,1.21-1.38,1.82-2.09.61-.72,1.26-1.46,1.97-2.22.14-.17.16-.33.06-.49-.1-.15-.23-.23-.4-.23-.14,0-.26.06-.34.17-.71.79-1.46,1.65-2.26,2.58-.8.93-1.59,1.79-2.35,2.56-.76.78-1.46,1.43-2.08,1.95-.62.52-1.1.78-1.44.78-.22,0-.38-.14-.47-.42-.06-.26-.03-.61.09-1.08.11-.47.27-.96.47-1.48.2-.52.41-1.05.64-1.57.22-.52.39-.95.51-1.29.23-.65.26-1.21.09-1.69-.17-.48-.54-.72-1.1-.72-.43,0-.88.14-1.36.43-.28.14-.61.42-.99.85-.38.42-.81.93-1.27,1.52-.47.6-.97,1.24-1.5,1.93-.54.69-1.09,1.4-1.65,2.14.62-1.19,1.24-2.32,1.86-3.39.54-.9,1.09-1.82,1.65-2.75.56-.93,1.06-1.64,1.48-2.12.28-.31.31-.64.09-1-.23-.35-.54-.53-.93-.53-.45,0-.85.26-1.18.76-.45.62-.96,1.38-1.52,2.29-.56.9-1.13,1.85-1.69,2.84-.56.99-1.11,1.99-1.63,3.01-.52,1.01-.95,1.95-1.29,2.79-.17.45-.15.87.04,1.25M508.26,700.45c-.55.9-1.12,1.68-1.71,2.33s-1.18,1.15-1.76,1.5c-.58.35-1.05.53-1.42.53-.48,0-.71-.31-.68-.93.06-.62.26-1.28.61-1.97.36-.69.77-1.35,1.25-1.99.48-.63,1-1.21,1.57-1.74.56-.52,1.1-.94,1.61-1.25.34-.23.69-.34,1.06-.34.31,0,.54.08.68.23.14.16.17.37.09.66-.31,1.07-.74,2.06-1.29,2.96M512.58,697.11c-.01-.23-.07-.44-.17-.64-.1-.2-.24-.35-.42-.47s-.37-.17-.57-.17c-.22,0-.42.08-.57.23-.15.16-.29.32-.4.49-.06-.14-.12-.27-.19-.38-.07-.11-.16-.21-.28-.3-.48-.45-1.09-.68-1.82-.68s-1.46.21-2.26.63c-.8.43-1.55,1-2.24,1.74-.69.74-1.29,1.58-1.78,2.54-.49.96-.8,1.98-.91,3.05-.11.99.09,1.71.6,2.18.51.47,1.12.7,1.82.7.45,0,.9-.1,1.35-.3.45-.2.88-.45,1.29-.76.41-.31.79-.65,1.14-1.02.35-.37.67-.72.95-1.06.09.85.36,1.47.83,1.86.47.4,1.02.6,1.67.6.82,0,1.62-.26,2.41-.78.79-.52,1.53-1.16,2.22-1.91.69-.75,1.33-1.53,1.91-2.35.58-.82,1.06-1.52,1.46-2.12.14-.17.15-.34.04-.51-.11-.17-.24-.26-.38-.26-.11,0-.21.04-.3.13-.06.06-.22.29-.49.7-.27.41-.6.89-1.01,1.44-.41.55-.87,1.14-1.38,1.76-.51.62-1.03,1.17-1.57,1.65-.37.34-.8.63-1.29.87-.49.24-.94.36-1.34.36s-.71-.13-.95-.4c-.24-.27-.31-.72-.19-1.38.06-.31.18-.69.38-1.14.2-.45.44-.9.72-1.36.28-.45.56-.88.85-1.29.28-.41.51-.74.68-.99.14-.23.2-.45.19-.68M490.01,695.73c-.16-.44-.47-.66-.95-.66-.17,0-.42.07-.76.21-.2.08-.55.44-1.06,1.06-.51.62-1.04,1.38-1.61,2.28-.57.9-1.09,1.89-1.57,2.96-.48,1.07-.77,2.11-.89,3.11-.11,1,.02,1.9.38,2.69.37.79,1.12,1.37,2.24,1.74.26.08.55.13.89.13.79,0,1.7-.25,2.73-.74,1.03-.49,2.09-1.11,3.18-1.84,1.09-.73,2.17-1.55,3.26-2.45,1.09-.9,2.08-1.76,2.98-2.58.9-.82,1.69-1.55,2.35-2.18.66-.64,1.12-1.05,1.38-1.25.11-.08.16-.19.15-.32-.01-.13-.06-.23-.13-.32-.07-.08-.16-.14-.27-.17-.11-.03-.23.01-.34.13-.4.37-.95.87-1.67,1.5-.72.64-1.54,1.33-2.46,2.08-.92.75-1.88,1.5-2.88,2.26-1,.76-1.99,1.46-2.96,2.09-.98.64-1.89,1.15-2.73,1.55-.85.39-1.57.59-2.16.59-.42,0-.75-.1-.97-.3-.51-.48-.75-1.13-.72-1.95.03-.82.23-1.72.61-2.69.38-.97.9-1.97,1.57-2.99.66-1.01,1.39-1.95,2.18-2.79.31-.34.39-.72.23-1.16M491.55,690.99c.06.19.16.35.32.49.15.14.32.25.51.32.19.07.33.08.45.02.22-.11.47-.29.74-.53.27-.24.54-.51.83-.8.28-.3.54-.59.76-.89.23-.3.38-.54.47-.74.14-.34.05-.68-.28-1.01-.32-.34-.66-.52-.99-.55-.26-.06-.5.02-.74.21-.24.2-.48.45-.72.76-.24.31-.47.66-.7,1.06-.23.4-.42.78-.59,1.14-.09.17-.1.35-.04.53M470.15,696.79c1.08-2.25,2.29-4.55,3.62-6.9,1.33-2.36,2.75-4.71,4.27-7.05,1.52-2.34,3.05-4.58,4.57-6.71,1.52-2.13,3.01-4.09,4.47-5.88,1.46-1.79,2.8-3.31,4.04-4.55,1.02-1.02,1.96-1.83,2.84-2.44.87-.61,1.59-.91,2.16-.91.73,0,1.17.57,1.29,1.71.13,1.14-.18,3.06-.91,5.74-.4,1.47-1.04,3.12-1.93,4.97-.89,1.85-1.99,3.79-3.3,5.82-1.31,2.03-2.82,4.1-4.51,6.21-1.69,2.1-3.54,4.14-5.54,6.12-2.01,1.98-4.16,3.83-6.46,5.57-2.3,1.74-4.72,3.25-7.26,4.55.68-1.92,1.56-4,2.65-6.24M474.68,699.62c2.41-1.79,4.67-3.69,6.78-5.7,2.1-2,4.03-4.08,5.78-6.22,1.75-2.15,3.31-4.26,4.68-6.33,1.37-2.08,2.52-4.08,3.47-6.01.95-1.93,1.66-3.69,2.14-5.27.99-3.41,1.3-5.9.93-7.45-.37-1.55-1.16-2.33-2.37-2.33-.85,0-1.84.34-2.96,1.01-1.13.68-2.33,1.65-3.6,2.92-.54.56-1.29,1.42-2.24,2.56-.96,1.14-2.04,2.49-3.24,4.04-1.2,1.55-2.48,3.29-3.85,5.21-1.37,1.92-2.74,3.92-4.13,5.99-1.38,2.08-2.72,4.21-4.02,6.39-1.3,2.19-2.48,4.33-3.54,6.44-1.06,2.1-1.95,4.14-2.69,6.1-.73,1.96-1.23,3.77-1.48,5.42-.25,1.65-.22,3.11.09,4.36.31,1.26.99,2.22,2.04,2.9.62.4,1.33.59,2.12.59.87,0,1.87-.27,3.01-.8,1.13-.54,2.38-1.43,3.77-2.69,1.38-1.25,2.89-2.91,4.51-4.95,1.62-2.05,3.36-4.58,5.23-7.6.09-.14.06-.26-.09-.36-.14-.1-.28-.15-.43-.15s-.25.04-.34.13c-1.98,3.13-3.77,5.67-5.38,7.62-1.61,1.95-3.05,3.47-4.32,4.57-1.27,1.1-2.38,1.85-3.32,2.25-.95.39-1.73.59-2.35.59-.43,0-.78-.06-1.06-.17-.28-.11-.49-.24-.64-.38-.71-.65-1.04-1.67-1.02-3.05.03-1.38.34-3.02.93-4.91,2.65-1.35,5.19-2.93,7.6-4.72M456.05,700.45c-.55.9-1.12,1.68-1.72,2.33-.59.65-1.18,1.15-1.76,1.5-.58.35-1.05.53-1.42.53-.48,0-.71-.31-.68-.93.06-.62.26-1.28.61-1.97.35-.69.77-1.35,1.25-1.99.48-.63,1-1.21,1.57-1.74.56-.52,1.1-.94,1.61-1.25.34-.23.69-.34,1.06-.34.31,0,.54.08.68.23.14.16.17.37.09.66-.31,1.07-.74,2.06-1.29,2.96M460.37,697.11c-.02-.23-.07-.44-.17-.64-.1-.2-.24-.35-.43-.47-.18-.11-.37-.17-.57-.17-.23,0-.42.08-.57.23-.16.16-.29.32-.4.49-.06-.14-.12-.27-.19-.38-.07-.11-.16-.21-.27-.3-.48-.45-1.09-.68-1.82-.68s-1.46.21-2.26.63c-.81.43-1.55,1-2.25,1.74-.69.74-1.28,1.58-1.78,2.54-.49.96-.8,1.98-.91,3.05-.11.99.09,1.71.59,2.18.51.47,1.12.7,1.82.7.45,0,.9-.1,1.35-.3.45-.2.88-.45,1.29-.76.41-.31.79-.65,1.14-1.02.35-.37.67-.72.95-1.06.08.85.36,1.47.83,1.86.47.4,1.02.6,1.67.6.82,0,1.62-.26,2.41-.78.79-.52,1.53-1.16,2.22-1.91.69-.75,1.33-1.53,1.91-2.35.58-.82,1.06-1.52,1.46-2.12.14-.17.15-.34.04-.51-.11-.17-.24-.26-.38-.26-.11,0-.21.04-.3.13-.06.06-.22.29-.49.7-.27.41-.61.89-1.02,1.44-.41.55-.87,1.14-1.38,1.76-.51.62-1.03,1.17-1.57,1.65-.37.34-.8.63-1.29.87-.49.24-.94.36-1.33.36s-.72-.13-.95-.4c-.24-.27-.3-.72-.19-1.38.06-.31.18-.69.38-1.14.2-.45.44-.9.72-1.36.28-.45.56-.88.85-1.29.28-.41.51-.74.68-.99.14-.23.2-.45.19-.68M451.37,671.02c.23-.17.41-.41.55-.72.11-.23.2-.47.26-.74.06-.27.08-.52.06-.74-.02-.23-.06-.42-.15-.57-.09-.15-.21-.23-.38-.23-.23,0-.49.16-.81.47-.48.54-1.33,1.64-2.54,3.3-1.21,1.67-2.61,3.67-4.19,6.01-2.74.54-5.35,1.08-7.83,1.63-2.49.55-4.72,1.08-6.69,1.59-.54.14-1.1.28-1.69.42-.59.14-1.17.27-1.74.4-.56.13-1.08.23-1.55.32s-.84.13-1.12.13c-.42,0-.59-.1-.51-.3.06-.11-.02-.24-.23-.38-.21-.14-.49-.21-.83-.21-.23,0-.51.07-.85.21-.39.2-.63.47-.7.83-.07.35-.02.64.15.87.28.42.83.63,1.65.63.54,0,1.16-.07,1.86-.21.71-.14,1.43-.3,2.16-.47.37-.08,1.07-.25,2.1-.49,1.03-.24,2.29-.54,3.79-.89,1.5-.35,3.18-.75,5.06-1.18,1.88-.44,3.86-.88,5.95-1.33-1.36,2.09-2.76,4.33-4.21,6.73-1.45,2.4-2.85,4.83-4.19,7.28-1.34,2.45-2.57,4.88-3.68,7.28-1.12,2.4-2.02,4.63-2.71,6.71-.69,2.08-1.12,3.93-1.27,5.57-.16,1.63.06,2.92.66,3.85.62.96,1.44,1.44,2.45,1.44.93,0,1.99-.35,3.18-1.06,1.18-.71,2.42-1.63,3.7-2.78,1.28-1.14,2.57-2.43,3.87-3.87,1.3-1.44,2.55-2.9,3.75-4.38,1.2-1.48,2.3-2.92,3.3-4.32,1-1.4,1.84-2.6,2.52-3.62.14-.23.18-.42.11-.57-.07-.16-.18-.23-.32-.23-.23,0-.39.11-.51.34-1.78,2.71-3.64,5.22-5.57,7.54-1.93,2.31-3.78,4.32-5.54,6.01-1.77,1.69-3.37,3.03-4.81,4-1.44.97-2.57,1.46-3.39,1.46-.6,0-.98-.27-1.14-.8-.26-.76-.26-1.87,0-3.32.25-1.46.72-3.14,1.4-5.06.68-1.92,1.53-4.03,2.56-6.33,1.03-2.3,2.2-4.69,3.49-7.18,1.3-2.49,2.7-5.02,4.19-7.62,1.5-2.6,3.05-5.14,4.66-7.62,2.29-.48,4.62-.95,7.01-1.4,2.38-.45,4.72-.85,7.01-1.18,2.29-.34,4.47-.61,6.56-.83,2.09-.21,3.98-.32,5.67-.32.76,0,1.48.02,2.14.06.66.04,1.28.12,1.84.23.48.08.71,0,.68-.23-.03-.24-.24-.43-.64-.57-.87-.26-2.19-.38-3.94-.38-1.47,0-3.17.08-5.1.25-1.93.17-4.01.4-6.22.68-2.22.28-4.52.61-6.92,1-2.4.38-4.79.8-7.16,1.25.73-1.1,1.46-2.18,2.18-3.24.72-1.06,1.45-2.08,2.18-3.07.06.14.2.13.42-.04M431.43,665.54c.37-.86.76-1.75,1.17-2.67.41-.92.83-1.82,1.27-2.71.44-.89.84-1.69,1.21-2.41.37-.72.68-1.31.95-1.78.27-.47.46-.73.57-.78.06-.03-.06.26-.34.87-.28.61-.69,1.46-1.23,2.56-.54,1.1-1.19,2.43-1.95,3.98-.76,1.55-1.61,3.29-2.54,5.21.23-.65.52-1.4.89-2.26M401.19,734.45c.2-.34.32-.66.38-.97,1.86-.2,3.72-.4,5.57-.59,1.85-.2,3.61-.38,5.29-.55,1.68-.17,3.24-.3,4.7-.4,1.45-.1,2.7-.15,3.75-.15.88,0,1.6.03,2.16.11.56.07.96.2,1.18.4.23.17.31.29.26.36-.06.07-.07.16-.04.27.06.14.11.21.17.21.09,0,.19-.06.32-.19.13-.13.22-.29.27-.49.06-.2.09-.41.09-.63s-.09-.43-.25-.6c-.23-.31-.76-.52-1.59-.63-.83-.11-1.89-.17-3.16-.17-1.1,0-2.34.03-3.73.11-1.38.07-2.84.17-4.38.3-1.54.13-3.15.26-4.83.4-1.68.14-3.37.28-5.06.43.99-2.49,2.24-5.37,3.75-8.66,1.51-3.29,3.18-6.81,5.02-10.57,1.83-3.75,3.76-7.66,5.78-11.73,2.02-4.06,4.03-8.1,6.03-12.11,2-4.01,3.94-7.91,5.8-11.71,1.86-3.8,3.55-7.31,5.06-10.54,1.51-3.23,2.78-6.1,3.81-8.59,1.03-2.5,1.71-4.45,2.05-5.87,1.98-.28,3.93-.56,5.86-.83,1.93-.27,3.79-.5,5.57-.7,1.78-.2,3.45-.36,5.02-.49,1.57-.13,2.97-.19,4.21-.19,1.02,0,1.92.04,2.71.13.79.09,1.43.24,1.91.47.43.17.75.26.97.26s.37-.06.44-.17c.07-.11.09-.26.04-.42-.04-.17-.14-.34-.3-.51-.16-.17-.36-.31-.61-.42-.51-.26-1.21-.44-2.12-.55-.9-.11-1.95-.17-3.13-.17-2.57,0-5.63.19-9.19.57-3.56.38-7.3.81-11.22,1.29-.06-.28-.14-.47-.25-.55-.45-.28-1.09-.01-1.91.8-1.95.23-3.89.45-5.82.68-1.93.22-3.81.42-5.61.59-1.81.17-3.54.3-5.19.4-1.65.1-3.17.15-4.55.15-1.13,0-2.15-.03-3.07-.1-.92-.07-1.71-.19-2.39-.36-.54-.14-.96-.12-1.27.06-.31.18-.49.44-.55.76-.06.32.03.65.26.97.22.32.6.57,1.14.74.51.14,1.11.25,1.82.32.7.07,1.51.11,2.41.11,1.3,0,2.75-.07,4.36-.19,1.61-.13,3.32-.3,5.14-.51,1.82-.21,3.73-.46,5.72-.74,1.99-.28,4-.56,6.03-.84-.71,1.04-1.47,2.36-2.28,3.96-.82,1.6-1.58,3.26-2.29,5-.71,1.74-1.3,3.45-1.78,5.14-.48,1.69-.72,3.18-.72,4.44-1.5,3.05-3.14,6.4-4.93,10.06-1.79,3.66-3.62,7.41-5.48,11.24-1.86,3.84-3.73,7.69-5.59,11.54-1.86,3.85-3.61,7.52-5.25,11.01-1.64,3.48-3.11,6.7-4.43,9.63-1.31,2.94-2.38,5.39-3.19,7.37-2.18.17-4.28.31-6.33.42-2.05.11-3.93.17-5.65.17s-3.26-.07-4.53-.21c-1.27-.14-2.23-.4-2.88-.76-.37-.2-.7-.23-1-.11-.3.13-.51.34-.63.64-.13.3-.13.63,0,1,.13.37.43.68.91.93.48.28,1.21.48,2.18.59.97.11,2.12.17,3.45.17,1.86,0,3.98-.09,6.35-.27,2.37-.19,4.84-.4,7.41-.66-.06.4.01.7.21.91.2.21.44.32.72.32.39,0,.69-.17.89-.51"/>
</svg>