<svg width="510" height="352" viewBox="0 0 510 352" fill="none" xmlns="http://www.w3.org/2000/svg">
<g clip-path="url(#clip0_1001_3)">
<path d="M434.97 251.79L451.67 199.65L470.87 251.79H434.97ZM510.21 278.79H500.22L459.16 168.43L425.29 278.79H415.77V280.19H436.84V278.79H426.38L434.66 253.03H471.34L480.86 278.79H471.18V280.19H510.2V278.79H510.21ZM349.91 219.63V172.33H358.5C362.25 172.33 365.39 173.42 367.94 175.61C370.49 177.8 372.41 180.68 373.71 184.27C375.01 187.86 375.66 191.79 375.66 196.05C375.66 200.31 375.35 204.24 374.72 207.84C374.1 211.43 372.82 214.29 370.9 216.43C368.97 218.56 366.09 219.63 362.24 219.63H349.91ZM410.48 278.79H407.05C404.45 278.79 402.18 277.7 400.26 275.51C398.33 273.33 397.37 270.67 397.37 267.55V244.29C397.37 239.4 396.22 235.18 393.94 231.64C389.46 224.67 381.45 220.66 369.9 219.62C372.71 219.21 375.49 218.55 378.25 217.67C381.01 216.79 383.17 215.83 384.73 214.78C387.96 212.49 390.22 209.68 391.52 206.35C392.82 203.02 393.47 199.59 393.47 196.05C393.47 179.4 383.48 171.07 363.5 171.07H322.13V172.32H331.5V278.78H322.13V280.18H358.5V278.78H349.91V221.02H368.64C371.76 221.02 374.31 222.27 376.29 224.77C378.27 227.27 379.25 230.29 379.25 233.82V260.2C379.46 265.82 381.18 270.5 384.4 274.25C387.63 278 391.63 279.97 396.42 280.18H410.47V278.78L410.48 278.79ZM310.58 239.14H309.49V240.08C309.49 246.74 308.4 253.01 306.21 258.89C304.02 264.77 300.59 269.56 295.91 273.25C291.23 276.94 285.24 278.79 277.96 278.79H259.38V224.63H266.25C272.08 224.84 276.5 227.44 279.52 232.43C281.71 236.18 283.11 240.19 283.73 244.45L284.04 246.64H284.97V202.31H284.04L283.88 205.9C283.57 211.73 281.33 216.36 277.17 219.79C274.67 221.87 271.13 223.07 266.56 223.38H259.38V172.34H274.99C285.5 172.34 293.54 175.85 299.11 182.87C304.68 189.89 307.46 199.08 307.46 210.42H308.55V171.08H231.59V172.33H240.95V278.79H231.59V280.19H310.57V239.14H310.58ZM218.79 172.34H228.16V171.09H207.09V172.34H217.39L192.73 252.89L163.07 172.34H172.75V171.09H133.73V172.34H143.72L184.62 282.7L218.8 172.34H218.79ZM130.44 278.79H120.92V172.33H130.44V171.08H92.82V172.33H102.5V278.79H92.82V280.19H130.44V278.79ZM27.58 219.63V172.33H36.17C39.92 172.33 43.06 173.42 45.61 175.61C48.16 177.8 50.08 180.68 51.38 184.27C52.68 187.86 53.33 191.79 53.33 196.05C53.33 200.31 53.02 204.24 52.39 207.84C51.77 211.43 50.49 214.29 48.57 216.43C46.64 218.56 43.75 219.63 39.91 219.63H27.58ZM88.14 278.79H84.71C82.11 278.79 79.84 277.7 77.92 275.51C75.99 273.33 75.03 270.67 75.03 267.55V244.29C75.03 239.4 73.88 235.18 71.6 231.64C67.12 224.67 59.11 220.66 47.56 219.62C50.37 219.21 53.15 218.55 55.91 217.67C58.67 216.79 60.83 215.83 62.39 214.78C65.61 212.49 67.88 209.68 69.18 206.35C70.48 203.02 71.13 199.59 71.13 196.05C71.13 179.4 61.14 171.07 41.16 171.07H-0.209961V172.32H9.16003V278.78H-0.209961V280.18H36.16V278.78H27.57V221.02H46.3C49.42 221.02 51.97 222.27 53.95 224.77C55.93 227.27 56.91 230.29 56.91 233.82V260.2C57.12 265.82 58.83 270.5 62.06 274.25C65.29 278 69.29 279.97 74.08 280.18H88.13V278.78L88.14 278.79Z" fill="white"/>
<path d="M186.01 57.5C187.14 59.36 187.89 60.56 188.61 61.78C191.39 66.5 190.91 68.85 186.45 71.99C182.51 74.76 181.12 74.79 186.61 78.36C191.05 81.25 191.46 83.7 188.7 88.25C186.827 91.3433 187.73 93.2834 191.41 94.07C197.57 95.38 198.53 96.65 198.13 102.89C197.86 107.12 197.95 107.24 202.27 106.94C213.44 106.16 222.02 100.76 228.76 92.06C230.29 90.09 231.81 88.09 233.62 86.39C239.31 81.02 267.05 81.06 272.62 86.55C275.07 88.96 277.06 91.82 279.31 94.44C285.89 102.1 294.16 106.43 304.31 106.94C308.12 107.14 308.33 106.83 307.96 103.17C307.33 96.89 308.42 95.41 314.63 94.05C318.25 93.2567 319.127 91.27 317.26 88.09C314.86 84 315.2 81.59 318.46 79.03C320.02 77.81 321.53 76.52 323.06 75.26C321.54 73.89 320.06 72.48 318.49 71.17C315.36 68.57 314.9 66.51 316.83 62.87C317.46 61.68 318.23 60.58 318.92 59.43C319.79 57.98 319.39 57.09 317.73 56.75C316.13 56.42 314.52 56.14 312.95 55.73C308.65 54.61 307.27 52.52 307.85 48.17C307.94 47.5 307.96 46.83 308.08 46.17C308.47 44 307.54 43.33 305.41 43.33C297.07 43.34 289.69 46.05 283.57 51.57C280.25 54.56 277.26 58.05 274.72 61.74C269.43 69.42 236.65 69.61 231.47 61.7C230 59.46 228.25 57.39 226.47 55.39C219.92 48.04 211.86 43.69 201.87 43.37C197.92 43.24 197.92 43.32 198.17 47.19C198.58 53.43 197.4 54.92 191.23 56.18C189.67 56.5 188.15 56.96 186.04 57.51M201.26 110.98H200.97C194.28 111.09 193.1 109.76 193.9 103.03C194.36 99.15 194.16 98.89 190.28 98.07C188.87 97.77 187.44 97.53 186.09 97.07C182.17 95.75 181.12 93.12 182.96 89.4C183.93 87.45 186.02 85.29 185.65 83.66C185.28 82 182.5 80.89 180.79 79.53C177.3 76.75 177.21 73.82 180.6 70.92C182.34 69.43 185.24 68.3 185.65 66.55C186.05 64.87 183.86 62.62 182.9 60.57C181.18 56.94 182.24 54.4 186.05 53.16C187.69 52.63 189.39 52.25 191.09 51.96C193.41 51.57 194.28 50.46 194.03 48C193.2 39.69 194.2 38.74 202.48 39.2C213.74 39.84 222.99 44.43 230.16 53.15C231.44 54.71 232.85 56.2 233.89 57.9C238.36 65.21 267.88 65.12 272.2 57.87C273.46 55.75 275.22 53.9 276.86 52.02C285.16 42.53 295.8 38.71 308.21 39.15C310.67 39.24 312.01 40.47 312.23 42.77C312.39 44.38 312.37 46.06 312.05 47.63C311.51 50.32 312.56 51.56 315.14 52.01C317.02 52.34 318.92 52.76 320.7 53.44C323.79 54.62 324.7 56.84 323.39 59.9C322.71 61.47 321.8 62.97 320.82 64.38C319.7 66 319.92 67.15 321.57 68.18C322.79 68.94 323.98 69.76 325.1 70.66C328.95 73.75 328.95 76.51 325.12 79.54C323.92 80.49 322.64 81.36 321.36 82.2C319.97 83.11 319.71 84.13 320.68 85.55C321.64 86.98 322.58 88.45 323.29 90.01C324.77 93.23 323.73 95.7 320.4 96.83C318.5 97.48 316.51 97.87 314.55 98.3C312.68 98.71 311.82 99.6 311.98 101.7C312.7 110.86 312.32 111.28 303.24 110.86C291.11 110.29 281.68 104.66 274.39 95.17C273.63 94.18 272.76 93.26 272.11 92.2C267.66 84.92 238.39 85.06 234.03 92.06C232.62 94.32 230.73 96.29 228.95 98.31C221.61 106.63 212.29 110.67 201.26 110.95" fill="#B29F64"/>
<path d="M235.64 74.71C234.8 74.39 233.97 74.01 233.11 73.76C228.24 72.29 223.37 70.84 218.49 69.4C217.02 68.96 215.61 68.37 216.16 66.47C216.71 64.55 218.23 64.83 219.7 65.27C227.04 67.5 234.35 69.87 241.74 71.9C243.72 72.44 262.44 72.43 264.43 71.88C271.64 69.9 278.76 67.59 285.92 65.4C287.43 64.94 289.13 64.3 289.82 66.31C290.58 68.49 288.84 69.04 287.17 69.52C282.47 70.88 277.78 72.29 273.1 73.7C272.16 73.98 271.24 74.37 270.32 74.71C270.32 74.96 270.32 75.2 270.32 75.45C271.62 75.91 272.91 76.42 274.24 76.82C278.74 78.18 283.25 79.52 287.76 80.81C289.37 81.27 290.6 82.25 289.78 83.84C289.4 84.57 287.49 85.12 286.52 84.85C279.04 82.75 271.66 80.33 264.17 78.25C262.35 77.74 243.85 77.7 242.04 78.2C234.65 80.25 227.34 82.59 220 84.82C218.49 85.28 216.82 85.84 216.24 83.68C215.69 81.62 217.3 81.1 218.85 80.64C223.54 79.26 228.24 77.89 232.93 76.49C233.82 76.22 234.69 75.87 235.57 75.55C235.6 75.27 235.63 74.98 235.66 74.7" fill="#B29F64"/>
<path d="M270.62 8.01997C268.76 9.14997 267.56 9.89998 266.34 10.62C261.62 13.4 259.27 12.92 256.13 8.45997C253.36 4.51997 253.33 3.12998 249.75 8.61998C246.87 13.06 244.41 13.47 239.86 10.71C236.767 8.83664 234.827 9.73665 234.04 13.41C232.73 19.57 231.46 20.53 225.22 20.13C220.99 19.86 220.87 19.95 221.17 24.27C221.95 35.44 227.35 44.02 236.05 50.76C238.02 52.29 240.02 53.81 241.72 55.62C247.09 61.31 247.05 89.05 241.56 94.62C239.15 97.07 236.29 99.06 233.67 101.31C226.01 107.89 221.68 116.16 221.17 126.31C220.97 130.12 221.28 130.33 224.94 129.96C231.22 129.33 232.7 130.42 234.06 136.63C234.853 140.25 236.84 141.127 240.02 139.26C244.11 136.86 246.52 137.2 249.08 140.46C250.3 142.02 251.59 143.53 252.85 145.06C254.22 143.54 255.63 142.06 256.94 140.49C259.54 137.36 261.6 136.9 265.24 138.83C266.43 139.46 267.53 140.23 268.68 140.92C270.13 141.79 271.02 141.39 271.36 139.73C271.69 138.13 271.97 136.52 272.38 134.95C273.5 130.65 275.59 129.27 279.94 129.85C280.61 129.94 281.28 129.97 281.94 130.09C284.11 130.48 284.78 129.55 284.78 127.42C284.77 119.08 282.06 111.7 276.54 105.58C273.55 102.26 270.06 99.27 266.37 96.73C258.69 91.44 258.5 58.66 266.41 53.48C268.65 52.01 270.72 50.26 272.73 48.48C280.08 41.93 284.43 33.87 284.75 23.88C284.88 19.93 284.8 19.93 280.93 20.18C274.69 20.59 273.2 19.41 271.94 13.24C271.62 11.68 271.16 10.16 270.61 8.04997M217.14 23.27V22.98C217.03 16.29 218.36 15.11 225.09 15.91C228.97 16.37 229.23 16.17 230.05 12.29C230.35 10.88 230.59 9.44999 231.05 8.09999C232.37 4.17999 235 3.12998 238.72 4.96998C240.67 5.93998 242.83 8.02999 244.46 7.65999C246.12 7.28999 247.23 4.50997 248.59 2.79997C251.37 -0.690029 254.29 -0.780032 257.2 2.60997C258.69 4.34997 259.82 7.24999 261.57 7.65999C263.25 8.05999 265.5 5.86999 267.55 4.90999C271.18 3.18999 273.72 4.24998 274.96 8.05998C275.49 9.69998 275.87 11.4 276.16 13.1C276.55 15.42 277.66 16.29 280.12 16.04C288.43 15.21 289.38 16.21 288.92 24.49C288.28 35.75 283.69 45 274.97 52.17C273.41 53.45 271.92 54.86 270.22 55.9C262.91 60.37 263 89.89 270.25 94.21C272.37 95.47 274.22 97.23 276.1 98.87C285.59 107.17 289.41 117.81 288.97 130.22C288.88 132.68 287.65 134.02 285.35 134.24C283.74 134.4 282.06 134.38 280.49 134.06C277.8 133.52 276.56 134.57 276.11 137.15C275.78 139.03 275.36 140.93 274.68 142.71C273.5 145.8 271.28 146.71 268.22 145.4C266.65 144.72 265.15 143.81 263.74 142.83C262.12 141.71 260.97 141.93 259.94 143.58C259.18 144.8 258.36 145.99 257.46 147.11C254.37 150.96 251.61 150.96 248.58 147.13C247.63 145.93 246.76 144.65 245.92 143.37C245.01 141.98 243.99 141.72 242.57 142.69C241.14 143.65 239.67 144.59 238.11 145.3C234.89 146.78 232.42 145.74 231.29 142.41C230.64 140.51 230.25 138.52 229.82 136.56C229.41 134.69 228.52 133.83 226.42 133.99C217.26 134.71 216.84 134.33 217.26 125.24C217.83 113.11 223.46 103.69 232.95 96.39C233.94 95.63 234.86 94.76 235.92 94.11C243.2 89.66 243.06 60.39 236.06 56.03C233.8 54.62 231.83 52.73 229.81 50.95C221.49 43.61 217.45 34.29 217.17 23.26" fill="#B29F64"/>
<path d="M253.41 57.65C253.73 56.81 254.11 55.98 254.36 55.12C255.83 50.25 257.28 45.38 258.72 40.5C259.16 39.03 259.75 37.62 261.65 38.17C263.57 38.72 263.29 40.24 262.85 41.71C260.62 49.05 258.25 56.36 256.22 63.75C255.68 65.73 255.69 84.45 256.24 86.44C258.22 93.65 260.53 100.77 262.72 107.93C263.18 109.44 263.82 111.14 261.81 111.83C259.63 112.59 259.08 110.85 258.6 109.18C257.24 104.48 255.83 99.79 254.42 95.11C254.14 94.17 253.75 93.25 253.41 92.33C253.16 92.33 252.92 92.33 252.67 92.33C252.21 93.63 251.7 94.92 251.3 96.25C249.94 100.75 248.6 105.26 247.31 109.77C246.85 111.38 245.87 112.61 244.28 111.79C243.55 111.41 243 109.5 243.27 108.53C245.37 101.05 247.79 93.67 249.87 86.19C250.38 84.38 250.42 65.87 249.92 64.06C247.87 56.67 245.53 49.36 243.3 42.02C242.84 40.51 242.28 38.84 244.44 38.26C246.5 37.71 247.02 39.32 247.48 40.87C248.86 45.56 250.23 50.26 251.63 54.95C251.9 55.84 252.25 56.71 252.56 57.59C252.84 57.62 253.13 57.65 253.41 57.68" fill="#B29F64"/>
<path d="M383.46 326.91C383.64 327.25 383.91 327.43 384.26 327.43C384.61 327.43 384.97 327.21 385.33 326.78C385.56 326.53 385.92 326.07 386.42 325.4C386.92 324.74 387.45 324.06 388.03 323.36C388.6 322.66 389.17 322.01 389.73 321.41C390.29 320.81 390.74 320.42 391.07 320.24C390.97 320.39 390.83 320.66 390.67 321.04C390.51 321.42 390.35 321.84 390.19 322.3C390.04 322.76 389.91 323.23 389.81 323.71C389.71 324.19 389.68 324.63 389.73 325.01C389.83 325.54 390.04 325.93 390.36 326.16C390.68 326.39 391.04 326.5 391.45 326.5C392.04 326.5 392.57 326.32 393.05 325.97C393.79 325.46 394.45 324.93 395.04 324.36C395.63 323.8 396.19 323.21 396.74 322.6C397.29 321.99 397.83 321.36 398.38 320.71C398.93 320.06 399.52 319.39 400.16 318.7C400.29 318.55 400.3 318.4 400.22 318.26C400.13 318.12 400.01 318.05 399.86 318.05C399.73 318.05 399.63 318.1 399.56 318.2C398.92 318.91 398.24 319.69 397.51 320.53C396.79 321.37 396.08 322.14 395.39 322.84C394.7 323.54 394.08 324.13 393.52 324.6C392.96 325.07 392.53 325.3 392.22 325.3C392.02 325.3 391.88 325.17 391.8 324.92C391.75 324.69 391.77 324.37 391.88 323.95C391.98 323.53 392.12 323.09 392.3 322.61C392.48 322.14 392.67 321.67 392.87 321.19C393.07 320.72 393.23 320.33 393.33 320.02C393.53 319.43 393.56 318.93 393.4 318.49C393.25 318.06 392.92 317.84 392.41 317.84C392.03 317.84 391.62 317.97 391.19 318.22C390.93 318.35 390.64 318.6 390.29 318.98C389.95 319.36 389.57 319.82 389.14 320.35C388.72 320.89 388.27 321.47 387.78 322.09C387.29 322.72 386.8 323.36 386.29 324.02C386.85 322.95 387.41 321.93 387.97 320.97C388.45 320.15 388.95 319.33 389.46 318.49C389.97 317.65 390.41 317.01 390.8 316.58C391.06 316.3 391.08 316 390.88 315.68C390.68 315.36 390.4 315.2 390.04 315.2C389.63 315.2 389.28 315.43 388.97 315.89C388.56 316.45 388.1 317.14 387.59 317.95C387.08 318.76 386.57 319.62 386.06 320.51C385.55 321.4 385.06 322.31 384.59 323.22C384.12 324.13 383.73 324.98 383.42 325.74C383.27 326.15 383.28 326.52 383.46 326.87M372.74 321.01C373.03 320.52 373.37 320.07 373.75 319.63C374.13 319.2 374.54 318.83 374.97 318.54C375.4 318.25 375.82 318.1 376.23 318.1C376.59 318.1 376.86 318.23 377.03 318.48C377.21 318.74 377.26 319.05 377.18 319.43C377.1 319.81 376.87 320.23 376.48 320.69C376.08 321.15 375.49 321.57 374.7 321.95C374.32 322.13 373.96 322.25 373.63 322.31C373.3 322.38 373.02 322.41 372.79 322.41C372.51 322.41 372.27 322.37 372.07 322.3C372.22 321.92 372.45 321.48 372.74 321M373.24 323.36C373.76 323.32 374.28 323.21 374.81 323.02C375.33 322.83 375.84 322.56 376.32 322.22C376.8 321.88 377.22 321.44 377.58 320.9C378.01 320.31 378.28 319.75 378.4 319.22C378.51 318.69 378.5 318.21 378.36 317.79C378.22 317.37 377.98 317.04 377.64 316.8C377.3 316.56 376.86 316.44 376.32 316.44C375.94 316.44 375.51 316.52 375.04 316.67C374.57 316.82 374.07 317.08 373.53 317.43C372.48 318.09 371.65 318.94 371.03 319.97C370.41 321 370.04 322.04 369.94 323.08C369.84 324.13 370.03 325.09 370.51 325.98C370.99 326.87 371.81 327.52 372.95 327.93C373.18 328.01 373.42 328.07 373.66 328.12C373.9 328.17 374.15 328.2 374.4 328.2C375.16 328.2 375.94 328.03 376.73 327.7C377.52 327.37 378.3 326.94 379.08 326.4C379.86 325.87 380.61 325.26 381.35 324.58C382.09 323.91 382.78 323.21 383.43 322.5C384.08 321.79 384.67 321.1 385.21 320.44C385.74 319.78 386.19 319.2 386.55 318.72C386.68 318.52 386.71 318.35 386.65 318.22C386.59 318.09 386.48 318.03 386.33 318.03C386.18 318.03 386.04 318.11 385.91 318.26C385.71 318.54 385.38 318.95 384.94 319.48C384.49 320.01 383.98 320.61 383.39 321.26C382.8 321.91 382.16 322.56 381.46 323.23C380.76 323.89 380.03 324.5 379.28 325.05C378.53 325.6 377.78 326.05 377.03 326.41C376.28 326.77 375.56 326.94 374.87 326.94C374.44 326.94 374.03 326.86 373.65 326.71C372.81 326.35 372.26 325.88 372.01 325.3C371.76 324.71 371.68 324.05 371.78 323.31C372.24 323.39 372.73 323.41 373.25 323.37M357.66 307.54C358.64 305.77 359.67 304.01 360.75 302.25C361.83 300.49 362.93 298.81 364.05 297.19C365.17 295.57 366.27 294.15 367.35 292.93C368.43 291.71 369.48 290.73 370.5 289.99C371.52 289.25 372.46 288.88 373.33 288.88C373.69 288.88 373.98 288.93 374.21 289.03C375.13 289.39 375.72 290.07 375.99 291.09C376.26 292.11 376.19 293.32 375.8 294.74C375.4 296.16 374.68 297.69 373.62 299.34C372.56 301 371.17 302.64 369.44 304.27C367.71 305.9 365.64 307.44 363.23 308.89C360.82 310.34 358.08 311.56 355 312.56C355.79 310.98 356.67 309.31 357.65 307.54M363.4 309.99C366.05 308.42 368.32 306.74 370.22 304.93C372.12 303.12 373.64 301.29 374.8 299.43C375.96 297.57 376.73 295.83 377.11 294.22C377.49 292.6 377.48 291.2 377.07 290C376.66 288.8 375.85 287.99 374.63 287.56C374.22 287.41 373.79 287.33 373.33 287.33C372.13 287.33 370.86 287.8 369.51 288.74C368.16 289.68 366.78 290.95 365.39 292.54C363.99 294.13 362.58 295.96 361.17 298.02C359.76 300.08 358.4 302.24 357.1 304.49C355.8 306.74 354.58 309.02 353.43 311.31C352.28 313.6 351.28 315.75 350.41 317.75C349.54 319.75 348.84 321.55 348.29 323.14C347.74 324.73 347.4 325.94 347.28 326.79C347.23 327.15 347.33 327.42 347.57 327.61C347.81 327.8 348.06 327.9 348.31 327.9C348.62 327.9 348.81 327.8 348.88 327.59C349.49 326.17 350.14 324.89 350.83 323.77C351.51 322.65 352.24 321.64 352.99 320.73C353.74 319.83 354.52 319.02 355.32 318.3C356.12 317.59 356.96 316.92 357.82 316.31C358.56 315.78 359.21 315.51 359.77 315.51C360.02 315.51 360.19 315.61 360.27 315.81C360.34 316.01 360.28 316.37 360.08 316.88C359.72 317.72 359.28 318.68 358.76 319.76C358.24 320.84 357.79 321.92 357.42 323.01C357.05 324.09 356.83 325.12 356.75 326.1C356.67 327.08 356.9 327.91 357.44 328.6C358.03 329.34 358.79 329.71 359.73 329.71C360.67 329.71 361.67 329.38 362.79 328.72C363.91 328.06 365.02 327.2 366.11 326.14C367.2 325.09 368.24 323.91 369.22 322.61C370.2 321.31 371.03 320.01 371.72 318.71C371.87 318.4 371.95 318.17 371.95 318C371.95 317.83 371.9 317.74 371.8 317.72C371.7 317.69 371.57 317.73 371.42 317.83C371.27 317.93 371.12 318.1 371 318.33C370.39 319.45 369.6 320.62 368.63 321.84C367.66 323.06 366.66 324.18 365.61 325.2C364.57 326.22 363.55 327.06 362.56 327.72C361.57 328.38 360.75 328.71 360.12 328.71C359.94 328.71 359.75 328.66 359.55 328.56C358.94 328.23 358.65 327.67 358.67 326.9C358.69 326.13 358.87 325.24 359.2 324.25C359.53 323.26 359.95 322.21 360.46 321.12C360.97 320.03 361.41 318.99 361.78 318.01C362.15 317.03 362.37 316.17 362.45 315.41C362.53 314.66 362.31 314.13 361.8 313.82C361.55 313.67 361.25 313.59 360.92 313.59C360.31 313.59 359.6 313.82 358.78 314.28C357.96 314.74 357.13 315.32 356.26 316.02C355.39 316.72 354.54 317.49 353.68 318.31C352.83 319.14 352.06 319.92 351.37 320.66C351.29 320.73 351.3 320.62 351.41 320.32C351.51 320.01 351.7 319.56 351.96 318.94C352.23 318.33 352.57 317.59 352.97 316.72C353.38 315.86 353.85 314.89 354.39 313.82C357.75 312.83 360.76 311.55 363.4 309.98M343.62 317.48C343.7 317.24 343.72 316.97 343.7 316.68C343.67 316.39 343.57 316.11 343.39 315.84C343.21 315.57 342.91 315.38 342.47 315.25C342.04 315.12 341.64 315.06 341.28 315.06C340.62 315.06 339.93 315.2 339.22 315.48C338.51 315.76 337.84 316.15 337.22 316.64C336.59 317.14 336.03 317.71 335.52 318.36C335.01 319.01 334.64 319.72 334.41 320.48C334.13 321.32 334.01 322.15 334.07 322.96C334.12 323.78 334.32 324.49 334.66 325.12C335 325.75 335.5 326.25 336.13 326.63C336.77 327.01 337.53 327.2 338.42 327.2C339.62 327.2 340.78 326.92 341.9 326.36C343.02 325.8 344.08 325.1 345.09 324.26C346.09 323.42 347.02 322.5 347.86 321.51C348.7 320.52 349.44 319.59 350.08 318.72C350.18 318.59 350.17 318.45 350.06 318.3C349.95 318.15 349.81 318.07 349.66 318.07C349.56 318.07 349.47 318.12 349.39 318.22C347.63 320.77 345.96 322.62 344.37 323.78C342.78 324.94 341.42 325.62 340.3 325.82C339.38 326 338.62 325.97 338.01 325.74C337.4 325.51 336.94 325.15 336.63 324.65C336.33 324.15 336.16 323.58 336.13 322.91C336.11 322.25 336.22 321.57 336.47 320.88C336.7 320.24 337.02 319.66 337.43 319.12C337.84 318.59 338.27 318.13 338.75 317.74C339.22 317.36 339.69 317.06 340.17 316.84C340.64 316.62 341.05 316.52 341.41 316.52C341.74 316.52 341.98 316.61 342.14 316.79C342.24 316.89 342.32 317.05 342.37 317.25C342.42 317.45 342.47 317.61 342.52 317.71C342.65 317.94 342.8 318.05 342.98 318.03C343.16 318.02 343.27 317.98 343.32 317.93C343.45 317.85 343.55 317.69 343.62 317.45M335.71 294.2C335.91 294.05 336.08 293.83 336.2 293.55C336.3 293.35 336.38 293.12 336.43 292.88C336.48 292.64 336.5 292.41 336.49 292.21C336.48 292.01 336.43 291.83 336.36 291.69C336.28 291.55 336.17 291.48 336.02 291.48C335.82 291.48 335.57 291.62 335.3 291.9C334.87 292.38 334.1 293.38 333.01 294.88C331.92 296.38 330.65 298.19 329.23 300.3C326.76 300.78 324.4 301.27 322.16 301.77C319.92 302.26 317.91 302.74 316.12 303.2C315.64 303.33 315.13 303.45 314.59 303.58C314.06 303.71 313.54 303.83 313.02 303.94C312.51 304.05 312.05 304.15 311.63 304.23C311.21 304.31 310.87 304.34 310.62 304.34C310.24 304.34 310.08 304.25 310.16 304.07C310.21 303.97 310.14 303.85 309.95 303.73C309.76 303.6 309.51 303.54 309.21 303.54C309.01 303.54 308.75 303.6 308.45 303.73C308.09 303.91 307.88 304.16 307.82 304.47C307.75 304.79 307.8 305.05 307.95 305.25C308.2 305.63 308.7 305.82 309.44 305.82C309.92 305.82 310.48 305.76 311.12 305.63C311.76 305.5 312.41 305.36 313.07 305.21C313.4 305.13 314.03 304.99 314.96 304.77C315.89 304.55 317.03 304.28 318.38 303.97C319.73 303.65 321.25 303.3 322.94 302.9C324.63 302.51 326.42 302.1 328.31 301.7C327.09 303.58 325.82 305.61 324.51 307.77C323.2 309.93 321.94 312.12 320.73 314.34C319.52 316.55 318.41 318.74 317.41 320.91C316.41 323.07 315.59 325.09 314.97 326.96C314.35 328.83 313.96 330.51 313.82 331.98C313.68 333.45 313.88 334.61 314.41 335.46C314.97 336.32 315.71 336.76 316.63 336.76C317.47 336.76 318.43 336.44 319.49 335.81C320.56 335.17 321.67 334.34 322.83 333.31C323.99 332.28 325.15 331.12 326.33 329.82C327.5 328.52 328.63 327.2 329.71 325.86C330.79 324.52 331.78 323.23 332.69 321.96C333.59 320.7 334.35 319.61 334.96 318.69C335.09 318.49 335.12 318.32 335.05 318.18C334.99 318.04 334.89 317.97 334.77 317.97C334.57 317.97 334.41 318.07 334.31 318.27C332.71 320.71 331.03 322.98 329.29 325.07C327.55 327.16 325.88 328.97 324.29 330.49C322.7 332.02 321.25 333.22 319.95 334.1C318.65 334.98 317.63 335.42 316.9 335.42C316.37 335.42 316.02 335.18 315.87 334.7C315.64 334.01 315.64 333.01 315.87 331.7C316.1 330.39 316.52 328.87 317.13 327.14C317.74 325.41 318.51 323.51 319.44 321.43C320.37 319.36 321.42 317.2 322.59 314.96C323.76 312.72 325.02 310.43 326.37 308.08C327.72 305.74 329.12 303.45 330.57 301.21C332.63 300.78 334.74 300.36 336.89 299.95C339.04 299.54 341.15 299.19 343.21 298.88C345.27 298.57 347.25 298.33 349.13 298.14C351.01 297.95 352.72 297.85 354.25 297.85C354.94 297.85 355.58 297.87 356.18 297.91C356.78 297.95 357.33 298.02 357.84 298.12C358.27 298.2 358.48 298.12 358.45 297.91C358.42 297.7 358.23 297.52 357.88 297.4C357.09 297.17 355.9 297.06 354.33 297.06C353.01 297.06 351.47 297.14 349.73 297.29C347.99 297.44 346.11 297.65 344.11 297.9C342.11 298.16 340.03 298.45 337.86 298.8C335.7 299.14 333.54 299.52 331.41 299.93C332.07 298.94 332.73 297.96 333.38 297.01C334.03 296.06 334.68 295.13 335.35 294.24C335.4 294.37 335.53 294.35 335.73 294.2M306.55 316.49C306.41 316.1 306.12 315.9 305.69 315.9C305.54 315.9 305.31 315.97 305 316.09C304.82 316.16 304.5 316.49 304.05 317.04C303.59 317.6 303.11 318.29 302.6 319.1C302.09 319.92 301.62 320.81 301.18 321.77C300.75 322.74 300.48 323.67 300.38 324.58C300.28 325.48 300.39 326.29 300.72 327.01C301.05 327.72 301.73 328.24 302.75 328.58C302.98 328.66 303.24 328.69 303.55 328.69C304.26 328.69 305.08 328.47 306.01 328.02C306.94 327.57 307.89 327.02 308.87 326.36C309.85 325.7 310.83 324.96 311.81 324.15C312.79 323.33 313.69 322.56 314.5 321.82C315.31 321.08 316.02 320.42 316.62 319.85C317.22 319.28 317.63 318.9 317.86 318.72C317.96 318.64 318.01 318.55 317.99 318.43C317.98 318.32 317.94 318.22 317.88 318.14C317.82 318.07 317.73 318.01 317.63 317.99C317.53 317.96 317.43 318 317.32 318.1C316.96 318.43 316.46 318.88 315.81 319.46C315.16 320.03 314.42 320.66 313.6 321.33C312.77 322 311.91 322.69 311 323.37C310.09 324.06 309.2 324.69 308.33 325.26C307.45 325.83 306.63 326.3 305.87 326.66C305.11 327.02 304.45 327.19 303.92 327.19C303.54 327.19 303.25 327.1 303.04 326.92C302.58 326.49 302.37 325.9 302.39 325.16C302.42 324.42 302.6 323.61 302.94 322.73C303.28 321.85 303.76 320.95 304.36 320.04C304.96 319.12 305.61 318.28 306.33 317.52C306.61 317.22 306.68 316.87 306.54 316.47M307.94 312.21C307.99 312.38 308.08 312.52 308.22 312.65C308.36 312.78 308.51 312.87 308.68 312.94C308.84 313 308.98 313.01 309.08 312.96C309.28 312.86 309.51 312.7 309.75 312.48C309.99 312.26 310.24 312.02 310.49 311.76C310.75 311.49 310.97 311.23 311.18 310.96C311.38 310.69 311.52 310.47 311.6 310.29C311.73 309.99 311.65 309.68 311.35 309.38C311.06 309.07 310.76 308.91 310.45 308.88C310.22 308.83 310 308.89 309.78 309.07C309.56 309.25 309.35 309.48 309.13 309.76C308.91 310.04 308.7 310.36 308.5 310.71C308.3 311.07 308.12 311.41 307.97 311.74C307.89 311.89 307.88 312.05 307.93 312.22M264.26 323.53C263.28 323.86 262.55 324.02 262.06 324.02C261.78 324.02 261.62 323.96 261.57 323.83C261.52 323.7 261.63 323.54 261.91 323.33C262.5 322.9 263.33 322.4 264.41 321.84C265.49 321.28 266.78 320.85 268.29 320.54C268.19 320.74 268.09 320.95 268 321.17C267.91 321.39 267.83 321.61 267.75 321.84C266.4 322.63 265.24 323.19 264.25 323.52M270.05 320.32L270.09 320.24H270.17L270.06 320.32H270.05ZM291.65 279.43C291.36 279.9 290.91 280.62 290.29 281.59C289.68 282.56 288.94 283.72 288.07 285.07C287.2 286.42 286.27 287.88 285.28 289.46C286.58 287.19 287.78 285.18 288.87 283.42C289.96 281.66 290.96 280.2 291.85 279.03C292 278.83 291.93 278.96 291.64 279.43M309.03 280.45C309.02 280.04 308.83 279.84 308.48 279.84C308.13 279.84 307.73 280.04 307.29 280.45C307.03 280.68 306.48 281.26 305.63 282.21C304.78 283.15 303.71 284.34 302.44 285.76C301.17 287.19 299.73 288.8 298.14 290.61C296.55 292.42 294.89 294.3 293.16 296.25C291.43 298.2 289.66 300.16 287.87 302.15C286.07 304.14 284.35 306.03 282.71 307.84C281.07 309.65 279.54 311.31 278.13 312.82C276.72 314.34 275.5 315.59 274.48 316.58C274.12 316.94 273.77 317.28 273.43 317.59C273.09 317.91 272.74 318.21 272.38 318.49C272.13 318.47 271.87 318.46 271.62 318.47C271.36 318.48 271.11 318.49 270.86 318.49C272.49 314.8 274.1 311.29 275.69 307.95C277.28 304.62 278.84 301.48 280.37 298.56C281.75 296.57 283.1 294.62 284.44 292.71C285.78 290.8 287.01 289 288.15 287.32C289.28 285.64 290.28 284.13 291.13 282.77C291.98 281.42 292.61 280.31 293.02 279.45C293.48 278.48 293.59 277.72 293.36 277.16C293.13 276.6 292.72 276.32 292.14 276.32C291.76 276.32 291.33 276.46 290.86 276.76C290.39 277.06 289.93 277.52 289.47 278.16C288.88 278.98 288.17 280.1 287.31 281.54C286.46 282.98 285.5 284.68 284.45 286.64C283.39 288.6 282.25 290.78 281.03 293.19C279.81 295.6 278.54 298.17 277.23 300.91C275.92 303.65 274.58 306.51 273.2 309.5C271.82 312.49 270.46 315.55 269.11 318.69C266.46 319.07 263.92 320.04 261.47 321.59C260.68 322.1 260.11 322.62 259.75 323.14C259.39 323.66 259.24 324.13 259.27 324.55C259.31 324.97 259.54 325.29 259.96 325.52C260.38 325.75 260.99 325.82 261.78 325.75C263.36 325.57 265.05 324.99 266.86 323.99C265.15 328.09 263.53 332.17 261.99 336.23C260.45 340.29 259.05 344.24 257.81 348.09C257.68 348.45 257.67 348.74 257.77 348.97C257.87 349.2 258.03 349.31 258.23 349.31C258.56 349.31 258.82 349.04 258.99 348.51C260.6 343.98 262.24 339.55 263.92 335.24C265.6 330.93 267.32 326.73 269.08 322.65C269.61 322.29 270.16 321.91 270.7 321.49C271.25 321.07 271.81 320.63 272.4 320.17C273.6 320.2 274.86 320.36 276.2 320.67C277.54 320.97 278.93 321.47 280.38 322.16C281.83 322.85 283.33 323.75 284.89 324.87C286.44 325.99 288.02 327.39 289.63 329.07C292.89 332.43 295.81 335.26 298.38 337.55C300.95 339.84 303.26 341.69 305.31 343.11C307.36 344.53 309.17 345.54 310.75 346.15C312.33 346.76 313.77 347.07 315.07 347.07C315.88 347.07 316.66 346.96 317.38 346.74C318.1 346.52 318.8 346.23 319.46 345.84C319.94 345.56 320.22 345.23 320.3 344.87C320.38 344.5 320.25 344.32 319.92 344.32C319.64 344.32 319.31 344.46 318.93 344.74C318.04 345.38 316.98 345.69 315.76 345.69C314.18 345.69 312.42 345.2 310.47 344.22C308.52 343.24 306.47 341.93 304.32 340.29C302.17 338.65 299.97 336.77 297.73 334.67C295.49 332.57 293.27 330.38 291.08 328.12C288.23 325.19 285.39 322.96 282.56 321.43C279.73 319.9 276.94 318.96 274.19 318.61C275.95 317.06 277.74 315.32 279.56 313.42C281.38 311.51 283.23 309.5 285.12 307.38C287 305.27 288.91 303.09 290.83 300.85C292.75 298.61 294.69 296.39 296.64 294.19C298.59 291.99 300.54 289.83 302.49 287.71C304.44 285.6 306.38 283.62 308.32 281.79C308.83 281.31 309.08 280.86 309.06 280.45M232.65 326.91C232.83 327.25 233.1 327.43 233.45 327.43C233.8 327.43 234.16 327.21 234.52 326.78C234.75 326.53 235.11 326.07 235.61 325.4C236.11 324.74 236.64 324.06 237.21 323.36C237.78 322.66 238.35 322.01 238.91 321.41C239.47 320.81 239.92 320.42 240.25 320.24C240.15 320.39 240.01 320.66 239.85 321.04C239.69 321.42 239.53 321.84 239.37 322.3C239.22 322.76 239.09 323.23 238.99 323.71C238.89 324.19 238.86 324.63 238.91 325.01C239.01 325.54 239.22 325.93 239.54 326.16C239.86 326.39 240.22 326.5 240.63 326.5C241.22 326.5 241.75 326.32 242.23 325.97C242.97 325.46 243.63 324.93 244.22 324.36C244.81 323.8 245.37 323.21 245.92 322.6C246.47 321.99 247.01 321.36 247.56 320.71C248.11 320.06 248.7 319.39 249.34 318.7C249.47 318.55 249.49 318.4 249.4 318.26C249.31 318.12 249.19 318.05 249.04 318.05C248.91 318.05 248.81 318.1 248.73 318.2C248.09 318.91 247.41 319.69 246.69 320.53C245.97 321.37 245.26 322.14 244.57 322.84C243.88 323.54 243.26 324.13 242.7 324.6C242.14 325.07 241.71 325.3 241.4 325.3C241.2 325.3 241.06 325.17 240.98 324.92C240.93 324.69 240.95 324.37 241.06 323.95C241.16 323.53 241.3 323.09 241.48 322.61C241.66 322.14 241.85 321.67 242.05 321.19C242.25 320.72 242.41 320.33 242.51 320.02C242.71 319.43 242.74 318.93 242.59 318.49C242.44 318.06 242.11 317.84 241.6 317.84C241.22 317.84 240.81 317.97 240.38 318.22C240.13 318.35 239.83 318.6 239.48 318.98C239.14 319.36 238.75 319.82 238.33 320.35C237.91 320.89 237.46 321.47 236.97 322.09C236.49 322.72 235.99 323.36 235.48 324.02C236.04 322.95 236.6 321.93 237.16 320.97C237.64 320.15 238.14 319.33 238.65 318.49C239.16 317.65 239.6 317.01 239.99 316.58C240.24 316.3 240.27 316 240.07 315.68C239.87 315.36 239.59 315.2 239.23 315.2C238.82 315.2 238.47 315.43 238.16 315.89C237.75 316.45 237.29 317.14 236.78 317.95C236.27 318.77 235.76 319.62 235.25 320.51C234.74 321.4 234.25 322.31 233.78 323.22C233.31 324.13 232.92 324.98 232.61 325.74C232.46 326.15 232.47 326.52 232.65 326.87M226.37 320.74C225.87 321.56 225.36 322.26 224.82 322.84C224.28 323.42 223.75 323.88 223.23 324.2C222.71 324.52 222.28 324.68 221.95 324.68C221.52 324.68 221.31 324.4 221.34 323.84C221.39 323.28 221.58 322.69 221.89 322.06C222.21 321.44 222.59 320.84 223.02 320.26C223.45 319.69 223.92 319.17 224.43 318.69C224.94 318.22 225.42 317.84 225.88 317.56C226.19 317.36 226.51 317.25 226.83 317.25C227.11 317.25 227.31 317.32 227.44 317.46C227.57 317.6 227.59 317.8 227.52 318.05C227.24 319.02 226.85 319.91 226.35 320.72M230.26 317.73C230.25 317.53 230.2 317.34 230.11 317.16C230.02 316.98 229.89 316.84 229.73 316.74C229.57 316.64 229.39 316.59 229.21 316.59C229.01 316.59 228.83 316.66 228.7 316.8C228.56 316.94 228.44 317.09 228.34 317.24C228.29 317.11 228.23 317 228.17 316.9C228.1 316.8 228.02 316.71 227.92 316.63C227.49 316.22 226.94 316.02 226.28 316.02C225.62 316.02 224.96 316.21 224.24 316.59C223.52 316.97 222.84 317.49 222.22 318.16C221.59 318.82 221.06 319.59 220.61 320.45C220.17 321.32 219.89 322.23 219.79 323.2C219.69 324.09 219.87 324.75 220.33 325.17C220.79 325.59 221.34 325.8 221.97 325.8C222.38 325.8 222.78 325.71 223.19 325.53C223.6 325.35 223.99 325.12 224.36 324.84C224.73 324.56 225.07 324.25 225.39 323.92C225.71 323.59 225.99 323.27 226.25 322.97C226.33 323.73 226.57 324.29 226.99 324.65C227.41 325.01 227.91 325.19 228.5 325.19C229.24 325.19 229.96 324.95 230.68 324.48C231.39 324.01 232.06 323.44 232.69 322.76C233.31 322.09 233.89 321.38 234.41 320.64C234.93 319.9 235.37 319.26 235.73 318.73C235.86 318.58 235.87 318.42 235.77 318.27C235.67 318.12 235.55 318.04 235.43 318.04C235.33 318.04 235.24 318.08 235.16 318.15C235.11 318.2 234.96 318.41 234.72 318.78C234.48 319.15 234.17 319.58 233.8 320.08C233.43 320.58 233.02 321.11 232.56 321.67C232.1 322.23 231.63 322.73 231.15 323.16C230.82 323.47 230.43 323.73 229.98 323.94C229.53 324.16 229.13 324.26 228.78 324.26C228.43 324.26 228.14 324.14 227.92 323.9C227.7 323.66 227.64 323.25 227.75 322.66C227.8 322.38 227.91 322.04 228.09 321.63C228.27 321.22 228.49 320.81 228.74 320.41C228.99 320 229.25 319.61 229.5 319.24C229.75 318.87 229.96 318.57 230.11 318.34C230.24 318.14 230.29 317.93 230.28 317.73M209.9 316.49C209.76 316.1 209.47 315.9 209.04 315.9C208.89 315.9 208.66 315.97 208.35 316.09C208.17 316.16 207.86 316.49 207.4 317.04C206.94 317.6 206.46 318.29 205.95 319.1C205.44 319.92 204.97 320.81 204.53 321.77C204.1 322.74 203.83 323.67 203.73 324.58C203.63 325.48 203.74 326.29 204.07 327.01C204.4 327.72 205.08 328.24 206.09 328.58C206.32 328.66 206.59 328.69 206.89 328.69C207.6 328.69 208.42 328.47 209.35 328.02C210.28 327.57 211.23 327.02 212.21 326.36C213.19 325.7 214.17 324.96 215.15 324.15C216.13 323.33 217.03 322.56 217.84 321.82C218.66 321.08 219.36 320.42 219.96 319.85C220.56 319.28 220.97 318.9 221.2 318.72C221.3 318.64 221.35 318.55 221.33 318.43C221.32 318.32 221.28 318.22 221.22 318.14C221.15 318.07 221.07 318.01 220.97 317.99C220.87 317.96 220.77 318 220.66 318.1C220.3 318.43 219.8 318.88 219.15 319.46C218.5 320.03 217.76 320.66 216.93 321.33C216.1 322 215.24 322.69 214.33 323.37C213.43 324.06 212.54 324.69 211.66 325.26C210.78 325.83 209.96 326.3 209.2 326.66C208.44 327.02 207.78 327.19 207.25 327.19C206.87 327.19 206.57 327.1 206.37 326.92C205.91 326.49 205.7 325.9 205.72 325.16C205.75 324.42 205.93 323.61 206.27 322.73C206.61 321.85 207.09 320.95 207.69 320.04C208.29 319.12 208.94 318.28 209.66 317.52C209.94 317.22 210.01 316.87 209.87 316.47M211.3 312.21C211.35 312.38 211.45 312.52 211.59 312.65C211.73 312.78 211.88 312.87 212.05 312.94C212.22 313 212.35 313.01 212.45 312.96C212.65 312.86 212.88 312.7 213.12 312.48C213.36 312.26 213.61 312.02 213.86 311.76C214.11 311.49 214.34 311.23 214.55 310.96C214.75 310.69 214.89 310.47 214.97 310.29C215.1 309.99 215.01 309.68 214.72 309.38C214.43 309.07 214.13 308.91 213.82 308.88C213.59 308.83 213.37 308.89 213.15 309.07C212.93 309.25 212.72 309.48 212.5 309.76C212.28 310.04 212.07 310.36 211.87 310.71C211.67 311.07 211.49 311.41 211.34 311.74C211.26 311.89 211.25 312.05 211.3 312.22M191.99 317.44C192.97 315.41 194.06 313.34 195.26 311.21C196.46 309.08 197.74 306.96 199.12 304.85C200.5 302.74 201.87 300.72 203.25 298.79C204.63 296.87 205.97 295.1 207.28 293.48C208.59 291.86 209.81 290.49 210.93 289.37C211.85 288.45 212.7 287.72 213.49 287.17C214.28 286.62 214.93 286.35 215.44 286.35C216.1 286.35 216.49 286.86 216.61 287.9C216.72 288.93 216.45 290.66 215.79 293.08C215.43 294.4 214.86 295.9 214.05 297.57C213.25 299.24 212.26 300.99 211.07 302.82C209.88 304.65 208.53 306.52 207 308.42C205.47 310.32 203.81 312.16 202 313.94C200.19 315.72 198.25 317.4 196.17 318.96C194.09 320.53 191.91 321.9 189.62 323.07C190.23 321.34 191.03 319.46 192.01 317.44M196.08 320C198.26 318.38 200.29 316.67 202.19 314.86C204.09 313.05 205.82 311.18 207.4 309.25C208.98 307.31 210.39 305.41 211.62 303.54C212.85 301.67 213.9 299.86 214.75 298.12C215.6 296.38 216.24 294.79 216.68 293.37C217.57 290.29 217.85 288.05 217.52 286.65C217.19 285.25 216.48 284.55 215.38 284.55C214.62 284.55 213.72 284.85 212.71 285.46C211.69 286.07 210.61 286.95 209.46 288.1C208.98 288.61 208.3 289.38 207.44 290.41C206.57 291.44 205.6 292.66 204.52 294.06C203.44 295.46 202.28 297.03 201.04 298.76C199.81 300.49 198.56 302.29 197.32 304.17C196.07 306.04 194.86 307.96 193.69 309.94C192.52 311.91 191.45 313.85 190.5 315.75C189.55 317.65 188.74 319.48 188.08 321.25C187.42 323.02 186.97 324.65 186.74 326.14C186.51 327.63 186.54 328.94 186.82 330.07C187.1 331.2 187.71 332.08 188.66 332.69C189.22 333.05 189.86 333.22 190.57 333.22C191.36 333.22 192.26 332.98 193.28 332.5C194.3 332.02 195.43 331.21 196.68 330.07C197.93 328.94 199.28 327.45 200.75 325.6C202.21 323.75 203.79 321.47 205.47 318.74C205.55 318.61 205.52 318.5 205.39 318.42C205.26 318.33 205.13 318.29 205.01 318.29C204.89 318.29 204.78 318.33 204.71 318.4C202.93 321.23 201.31 323.52 199.86 325.28C198.41 327.04 197.11 328.41 195.96 329.4C194.81 330.39 193.81 331.07 192.96 331.43C192.1 331.79 191.4 331.96 190.84 331.96C190.46 331.96 190.14 331.91 189.89 331.81C189.63 331.71 189.44 331.59 189.32 331.47C188.68 330.88 188.38 329.97 188.4 328.72C188.43 327.47 188.71 326 189.24 324.29C191.63 323.07 193.92 321.65 196.1 320.03M179.27 320.74C178.77 321.56 178.26 322.26 177.72 322.84C177.19 323.43 176.66 323.88 176.13 324.2C175.61 324.52 175.18 324.68 174.85 324.68C174.42 324.68 174.21 324.4 174.24 323.84C174.29 323.28 174.48 322.69 174.79 322.06C175.11 321.44 175.48 320.84 175.92 320.26C176.35 319.69 176.82 319.17 177.34 318.69C177.85 318.22 178.33 317.84 178.79 317.56C179.09 317.36 179.41 317.25 179.74 317.25C180.02 317.25 180.22 317.32 180.35 317.46C180.48 317.6 180.5 317.8 180.43 318.05C180.15 319.02 179.76 319.91 179.26 320.72M183.17 317.73C183.16 317.53 183.1 317.34 183.02 317.16C182.93 316.98 182.8 316.84 182.64 316.74C182.48 316.64 182.3 316.59 182.13 316.59C181.93 316.59 181.75 316.66 181.62 316.8C181.48 316.94 181.36 317.09 181.26 317.24C181.21 317.11 181.15 317 181.09 316.9C181.03 316.8 180.95 316.71 180.84 316.63C180.41 316.22 179.86 316.02 179.2 316.02C178.54 316.02 177.88 316.21 177.16 316.59C176.43 316.97 175.76 317.49 175.13 318.16C174.51 318.82 173.97 319.59 173.53 320.45C173.08 321.32 172.81 322.23 172.71 323.2C172.61 324.09 172.79 324.75 173.24 325.17C173.7 325.59 174.25 325.8 174.88 325.8C175.29 325.8 175.7 325.71 176.1 325.53C176.51 325.35 176.9 325.12 177.27 324.84C177.64 324.56 177.98 324.25 178.3 323.92C178.62 323.59 178.91 323.27 179.16 322.97C179.23 323.73 179.48 324.29 179.9 324.65C180.32 325.01 180.82 325.19 181.41 325.19C182.15 325.19 182.87 324.95 183.59 324.48C184.3 324.01 184.97 323.44 185.59 322.76C186.22 322.09 186.79 321.38 187.31 320.64C187.83 319.9 188.27 319.26 188.63 318.73C188.76 318.58 188.77 318.42 188.67 318.27C188.57 318.12 188.45 318.04 188.33 318.04C188.23 318.04 188.14 318.08 188.06 318.15C188.01 318.2 187.86 318.41 187.62 318.78C187.38 319.15 187.07 319.58 186.7 320.08C186.33 320.58 185.92 321.11 185.46 321.67C185 322.23 184.53 322.73 184.05 323.16C183.72 323.47 183.33 323.73 182.88 323.94C182.43 324.16 182.03 324.26 181.68 324.26C181.33 324.26 181.03 324.14 180.82 323.9C180.6 323.66 180.55 323.25 180.65 322.66C180.7 322.38 180.81 322.04 180.99 321.63C181.17 321.22 181.39 320.81 181.64 320.41C181.9 320 182.15 319.61 182.4 319.24C182.66 318.87 182.86 318.57 183.01 318.34C183.14 318.14 183.19 317.93 183.18 317.73M175.05 294.2C175.25 294.05 175.42 293.83 175.55 293.55C175.65 293.35 175.73 293.12 175.78 292.88C175.83 292.64 175.85 292.41 175.84 292.21C175.83 292.01 175.78 291.83 175.71 291.69C175.63 291.55 175.52 291.48 175.37 291.48C175.17 291.48 174.92 291.62 174.64 291.9C174.21 292.38 173.44 293.38 172.35 294.88C171.26 296.38 169.99 298.19 168.57 300.3C166.1 300.78 163.74 301.27 161.51 301.77C159.27 302.26 157.26 302.74 155.47 303.2C154.99 303.33 154.48 303.45 153.94 303.58C153.41 303.71 152.88 303.83 152.37 303.94C151.86 304.05 151.4 304.15 150.97 304.23C150.55 304.31 150.21 304.34 149.96 304.34C149.58 304.34 149.43 304.25 149.5 304.07C149.55 303.97 149.48 303.85 149.29 303.73C149.1 303.6 148.85 303.54 148.55 303.54C148.35 303.54 148.09 303.6 147.79 303.73C147.43 303.91 147.22 304.16 147.16 304.47C147.1 304.79 147.14 305.05 147.29 305.25C147.55 305.63 148.04 305.82 148.78 305.82C149.27 305.82 149.83 305.76 150.46 305.63C151.1 305.5 151.75 305.36 152.41 305.21C152.74 305.13 153.37 304.99 154.3 304.77C155.23 304.55 156.37 304.28 157.72 303.97C159.07 303.65 160.59 303.3 162.28 302.9C163.97 302.51 165.76 302.1 167.65 301.7C166.43 303.58 165.16 305.61 163.85 307.77C162.54 309.93 161.28 312.12 160.07 314.34C158.86 316.55 157.75 318.74 156.75 320.91C155.74 323.07 154.93 325.09 154.31 326.96C153.68 328.83 153.3 330.51 153.16 331.98C153.02 333.45 153.22 334.61 153.75 335.46C154.31 336.32 155.05 336.76 155.96 336.76C156.8 336.76 157.76 336.44 158.83 335.81C159.9 335.17 161.01 334.34 162.17 333.31C163.33 332.28 164.49 331.12 165.67 329.82C166.84 328.52 167.97 327.2 169.05 325.86C170.13 324.52 171.12 323.23 172.03 321.96C172.93 320.7 173.69 319.61 174.3 318.69C174.43 318.49 174.46 318.32 174.4 318.18C174.34 318.04 174.24 317.97 174.11 317.97C173.91 317.97 173.75 318.07 173.65 318.27C172.04 320.71 170.37 322.98 168.63 325.07C166.89 327.16 165.22 328.97 163.63 330.49C162.04 332.02 160.59 333.22 159.29 334.1C157.99 334.98 156.97 335.42 156.24 335.42C155.7 335.42 155.36 335.18 155.21 334.7C154.98 334.01 154.98 333.01 155.21 331.7C155.44 330.39 155.86 328.87 156.47 327.14C157.08 325.41 157.85 323.51 158.78 321.43C159.71 319.36 160.76 317.2 161.93 314.96C163.1 312.72 164.36 310.43 165.71 308.08C167.06 305.74 168.46 303.45 169.91 301.21C171.97 300.78 174.08 300.36 176.23 299.95C178.38 299.54 180.49 299.19 182.55 298.88C184.61 298.57 186.59 298.33 188.47 298.14C190.35 297.95 192.06 297.85 193.59 297.85C194.28 297.85 194.92 297.87 195.52 297.91C196.12 297.95 196.67 298.02 197.18 298.12C197.61 298.2 197.82 298.12 197.79 297.91C197.76 297.7 197.57 297.52 197.22 297.4C196.43 297.17 195.25 297.06 193.67 297.06C192.35 297.06 190.81 297.14 189.07 297.29C187.33 297.44 185.45 297.65 183.45 297.9C181.45 298.16 179.37 298.45 177.2 298.8C175.03 299.14 172.88 299.52 170.74 299.93C171.4 298.94 172.06 297.96 172.71 297.01C173.36 296.06 174.01 295.13 174.68 294.24C174.73 294.37 174.86 294.35 175.06 294.2M157.06 289.25C157.39 288.47 157.74 287.67 158.11 286.84C158.48 286.01 158.86 285.2 159.26 284.4C159.66 283.6 160.02 282.87 160.35 282.22C160.68 281.57 160.97 281.03 161.21 280.61C161.45 280.19 161.62 279.95 161.72 279.9C161.77 279.88 161.67 280.14 161.42 280.68C161.16 281.23 160.79 282 160.31 282.99C159.83 283.98 159.24 285.18 158.55 286.58C157.86 287.98 157.1 289.55 156.26 291.28C156.46 290.69 156.73 290.01 157.06 289.24M129.78 351.42C129.96 351.12 130.07 350.82 130.12 350.54C131.8 350.36 133.48 350.18 135.14 350.01C136.81 349.83 138.4 349.67 139.91 349.51C141.42 349.36 142.84 349.24 144.15 349.15C145.46 349.06 146.59 349.02 147.53 349.02C148.32 349.02 148.97 349.05 149.48 349.12C149.99 349.18 150.34 349.3 150.55 349.48C150.75 349.63 150.83 349.74 150.78 349.8C150.73 349.86 150.71 349.95 150.74 350.05C150.79 350.18 150.84 350.24 150.89 350.24C150.97 350.24 151.06 350.18 151.18 350.07C151.29 349.96 151.38 349.81 151.43 349.63C151.48 349.45 151.51 349.26 151.51 349.06C151.51 348.86 151.43 348.68 151.28 348.52C151.08 348.24 150.6 348.05 149.85 347.95C149.1 347.85 148.15 347.8 147 347.8C146.01 347.8 144.89 347.83 143.64 347.9C142.39 347.96 141.07 348.05 139.69 348.17C138.3 348.28 136.85 348.41 135.34 348.53C133.83 348.66 132.3 348.79 130.77 348.91C131.66 346.67 132.79 344.06 134.15 341.1C135.51 338.13 137.02 334.96 138.68 331.57C140.33 328.18 142.07 324.66 143.89 320.99C145.71 317.32 147.52 313.68 149.33 310.07C151.14 306.45 152.88 302.93 154.56 299.51C156.24 296.09 157.76 292.91 159.12 290C160.48 287.08 161.63 284.5 162.56 282.25C163.49 279.99 164.11 278.23 164.41 276.96C166.19 276.7 167.95 276.46 169.7 276.22C171.44 275.98 173.12 275.77 174.72 275.59C176.32 275.41 177.83 275.27 179.25 275.15C180.66 275.04 181.93 274.98 183.05 274.98C183.97 274.98 184.78 275.02 185.49 275.09C186.2 275.17 186.78 275.31 187.21 275.51C187.59 275.66 187.88 275.74 188.09 275.74C188.3 275.74 188.43 275.69 188.49 275.59C188.56 275.49 188.57 275.36 188.53 275.21C188.49 275.06 188.4 274.9 188.26 274.75C188.12 274.6 187.94 274.47 187.71 274.37C187.25 274.14 186.62 273.98 185.8 273.87C184.98 273.77 184.04 273.72 182.97 273.72C180.65 273.72 177.89 273.89 174.68 274.24C171.47 274.58 168.1 274.97 164.56 275.41C164.51 275.15 164.43 274.99 164.33 274.91C163.92 274.66 163.35 274.9 162.61 275.63C160.85 275.83 159.1 276.04 157.36 276.24C155.62 276.44 153.93 276.62 152.3 276.77C150.67 276.92 149.11 277.04 147.62 277.13C146.13 277.22 144.76 277.26 143.51 277.26C142.49 277.26 141.57 277.23 140.74 277.17C139.91 277.11 139.19 277 138.58 276.85C138.1 276.72 137.71 276.74 137.43 276.91C137.15 277.07 136.98 277.3 136.93 277.6C136.88 277.89 136.96 278.19 137.16 278.48C137.36 278.77 137.71 278.99 138.19 279.15C138.65 279.28 139.19 279.37 139.83 279.44C140.46 279.5 141.19 279.54 142.01 279.54C143.18 279.54 144.49 279.48 145.94 279.37C147.39 279.26 148.94 279.1 150.58 278.91C152.22 278.72 153.94 278.5 155.74 278.24C157.54 277.99 159.35 277.73 161.18 277.48C160.54 278.42 159.86 279.61 159.12 281.05C158.38 282.49 157.69 283.99 157.06 285.56C156.42 287.13 155.89 288.67 155.45 290.2C155.02 291.73 154.8 293.06 154.8 294.21C153.45 296.96 151.97 299.98 150.35 303.28C148.73 306.58 147.08 309.96 145.4 313.42C143.72 316.88 142.04 320.35 140.36 323.83C138.68 327.31 137.1 330.62 135.62 333.76C134.14 336.9 132.81 339.8 131.63 342.45C130.45 345.1 129.48 347.31 128.75 349.1C126.79 349.25 124.89 349.38 123.04 349.48C121.19 349.58 119.49 349.63 117.94 349.63C116.39 349.63 115 349.56 113.85 349.44C112.7 349.31 111.84 349.08 111.25 348.75C110.92 348.57 110.62 348.54 110.35 348.65C110.08 348.76 109.89 348.96 109.78 349.22C109.66 349.49 109.66 349.79 109.78 350.12C109.89 350.45 110.17 350.73 110.6 350.96C111.03 351.22 111.69 351.39 112.57 351.49C113.45 351.59 114.49 351.64 115.68 351.64C117.36 351.64 119.27 351.56 121.41 351.39C123.55 351.22 125.77 351.03 128.09 350.8C128.04 351.16 128.1 351.43 128.28 351.62C128.46 351.81 128.68 351.91 128.93 351.91C129.29 351.91 129.55 351.76 129.73 351.45" fill="#B29F64"/>
</g>
<defs>
<clipPath id="clip0_1001_3">
<rect width="510" height="352" fill="white"/>
</clipPath>
</defs>
</svg>
