<?xml version="1.0" encoding="UTF-8"?>
<svg id="Layer_1" xmlns="http://www.w3.org/2000/svg" viewBox="0 0 1080 1080">
  <defs>
    <style>
      .cls-1 {
        fill: #fff;
      }

      .cls-2 {
        fill: #b29f64;
      }
    </style>
  </defs>
  <path class="cls-1" d="M719.97,615.79l16.7-52.14,19.2,52.14h-35.9ZM795.21,642.79h-9.99l-41.06-110.36-33.87,110.36h-9.52v1.4h21.07v-1.4h-10.46l8.28-25.76h36.68l9.52,25.76h-9.68v1.4h39.02v-1.4ZM634.91,583.63v-47.3h8.59c3.75,0,6.89,1.09,9.44,3.28,2.55,2.19,4.47,5.07,5.77,8.66,1.3,3.59,1.95,7.52,1.95,11.78s-.31,8.19-.94,11.79c-.62,3.59-1.9,6.45-3.82,8.59-1.93,2.13-4.81,3.2-8.66,3.2h-12.33ZM695.48,642.79h-3.43c-2.6,0-4.87-1.09-6.79-3.28-1.93-2.18-2.89-4.84-2.89-7.96v-23.26c0-4.89-1.15-9.11-3.43-12.65-4.48-6.97-12.49-10.98-24.04-12.02,2.81-.41,5.59-1.07,8.35-1.95,2.76-.88,4.92-1.84,6.48-2.89,3.23-2.29,5.49-5.1,6.79-8.43,1.3-3.33,1.95-6.76,1.95-10.3,0-16.65-9.99-24.98-29.97-24.98h-41.37v1.25h9.37v106.46h-9.37v1.4h36.37v-1.4h-8.59v-57.76h18.73c3.12,0,5.67,1.25,7.65,3.75,1.98,2.5,2.96,5.52,2.96,9.05v26.38c.21,5.62,1.93,10.3,5.15,14.05,3.23,3.75,7.23,5.72,12.02,5.93h14.05v-1.4ZM595.58,603.14h-1.09v.94c0,6.66-1.09,12.93-3.28,18.81-2.19,5.88-5.62,10.67-10.3,14.36-4.68,3.69-10.67,5.54-17.95,5.54h-18.58v-54.16h6.87c5.83.21,10.25,2.81,13.27,7.8,2.19,3.75,3.59,7.76,4.21,12.02l.31,2.19h.93v-44.33h-.93l-.16,3.59c-.31,5.83-2.55,10.46-6.71,13.89-2.5,2.08-6.04,3.28-10.61,3.59h-7.18v-51.04h15.61c10.51,0,18.55,3.51,24.12,10.53,5.57,7.02,8.35,16.21,8.35,27.55h1.09v-39.34h-76.96v1.25h9.36v106.46h-9.36v1.4h78.98v-41.05ZM503.79,536.34h9.37v-1.25h-21.07v1.25h10.3l-24.66,80.55-29.66-80.55h9.68v-1.25h-39.02v1.25h9.99l40.9,110.36,34.18-110.36ZM415.44,642.79h-9.52v-106.46h9.52v-1.25h-37.62v1.25h9.68v106.46h-9.68v1.4h37.62v-1.4ZM312.58,583.63v-47.3h8.59c3.75,0,6.89,1.09,9.44,3.28,2.55,2.19,4.47,5.07,5.77,8.66,1.3,3.59,1.95,7.52,1.95,11.78s-.31,8.19-.94,11.79c-.62,3.59-1.9,6.45-3.82,8.59-1.93,2.13-4.82,3.2-8.66,3.2h-12.33ZM373.14,642.79h-3.43c-2.6,0-4.87-1.09-6.79-3.28-1.93-2.18-2.89-4.84-2.89-7.96v-23.26c0-4.89-1.15-9.11-3.43-12.65-4.48-6.97-12.49-10.98-24.04-12.02,2.81-.41,5.59-1.07,8.35-1.95,2.76-.88,4.92-1.84,6.48-2.89,3.22-2.29,5.49-5.1,6.79-8.43,1.3-3.33,1.95-6.76,1.95-10.3,0-16.65-9.99-24.98-29.97-24.98h-41.37v1.25h9.37v106.46h-9.37v1.4h36.37v-1.4h-8.59v-57.76h18.73c3.12,0,5.67,1.25,7.65,3.75,1.98,2.5,2.96,5.52,2.96,9.05v26.38c.21,5.62,1.92,10.3,5.15,14.05,3.23,3.75,7.23,5.72,12.02,5.93h14.05v-1.4Z"/>
  <path class="cls-2" d="M471.01,421.5c1.13,1.86,1.88,3.06,2.6,4.28,2.78,4.72,2.3,7.07-2.16,10.21-3.94,2.77-5.33,2.8.16,6.37,4.44,2.89,4.85,5.34,2.09,9.89q-2.81,4.64,2.71,5.82c6.16,1.31,7.12,2.58,6.72,8.82-.27,4.23-.18,4.35,4.14,4.05,11.17-.78,19.75-6.18,26.49-14.88,1.53-1.97,3.05-3.97,4.86-5.67,5.69-5.37,33.43-5.33,39,.16,2.45,2.41,4.44,5.27,6.69,7.89,6.58,7.66,14.85,11.99,25,12.5,3.81.2,4.02-.11,3.65-3.77-.63-6.28.46-7.76,6.67-9.12q5.43-1.19,2.63-5.96c-2.4-4.09-2.06-6.5,1.2-9.06,1.56-1.22,3.07-2.51,4.6-3.77-1.52-1.37-3-2.78-4.57-4.09-3.13-2.6-3.59-4.66-1.66-8.3.63-1.19,1.4-2.29,2.09-3.44.87-1.45.47-2.34-1.19-2.68-1.6-.33-3.21-.61-4.78-1.02-4.3-1.12-5.68-3.21-5.1-7.56.09-.67.11-1.34.23-2,.39-2.17-.54-2.84-2.67-2.84-8.34.01-15.72,2.72-21.84,8.24-3.32,2.99-6.31,6.48-8.85,10.17-5.29,7.68-38.07,7.87-43.25-.04-1.47-2.24-3.22-4.31-5-6.31-6.55-7.35-14.61-11.7-24.6-12.02-3.95-.13-3.95-.05-3.7,3.82.41,6.24-.77,7.73-6.94,8.99-1.56.32-3.08.78-5.19,1.33M486.26,474.98h-.29c-6.69.11-7.87-1.22-7.07-7.95.46-3.88.26-4.14-3.62-4.96-1.41-.3-2.84-.54-4.19-1-3.92-1.32-4.97-3.95-3.13-7.67.97-1.95,3.06-4.11,2.69-5.74-.37-1.66-3.15-2.77-4.86-4.13-3.49-2.78-3.58-5.71-.19-8.61,1.74-1.49,4.64-2.62,5.05-4.37.4-1.68-1.79-3.93-2.75-5.98-1.72-3.63-.66-6.17,3.15-7.41,1.64-.53,3.34-.91,5.04-1.2,2.32-.39,3.19-1.5,2.94-3.96-.83-8.31.17-9.26,8.45-8.8,11.26.64,20.51,5.23,27.68,13.95,1.28,1.56,2.69,3.05,3.73,4.75,4.47,7.31,33.99,7.22,38.31-.03,1.26-2.12,3.02-3.97,4.66-5.85,8.3-9.49,18.94-13.31,31.35-12.87,2.46.09,3.8,1.32,4.02,3.62.16,1.61.14,3.29-.18,4.86-.54,2.69.51,3.93,3.09,4.38,1.88.33,3.78.75,5.56,1.43,3.09,1.18,4,3.4,2.69,6.46-.68,1.57-1.59,3.07-2.57,4.48-1.12,1.62-.9,2.77.75,3.8,1.22.76,2.41,1.58,3.53,2.48,3.85,3.09,3.85,5.85.02,8.88-1.2.95-2.48,1.82-3.76,2.66-1.39.91-1.65,1.93-.68,3.35.96,1.43,1.9,2.9,2.61,4.46,1.48,3.22.44,5.69-2.89,6.82-1.9.65-3.89,1.04-5.85,1.47-1.87.41-2.73,1.3-2.57,3.4.72,9.16.34,9.58-8.74,9.16-12.13-.57-21.56-6.2-28.85-15.69-.76-.99-1.63-1.91-2.28-2.97-4.45-7.28-33.72-7.14-38.08-.14-1.41,2.26-3.3,4.23-5.08,6.25-7.34,8.32-16.66,12.36-27.69,12.64"/>
  <path class="cls-2" d="M520.64,438.71c-.84-.32-1.67-.7-2.53-.95-4.87-1.47-9.74-2.92-14.62-4.36-1.47-.44-2.88-1.03-2.33-2.93.55-1.92,2.07-1.64,3.54-1.2,7.34,2.23,14.65,4.6,22.04,6.63,1.98.54,20.7.53,22.69-.02,7.21-1.98,14.33-4.29,21.49-6.48,1.51-.46,3.21-1.1,3.9.91.76,2.18-.98,2.73-2.65,3.21-4.7,1.36-9.39,2.77-14.07,4.18-.94.28-1.86.67-2.78,1.01,0,.25,0,.49,0,.74,1.3.46,2.59.97,3.92,1.37,4.5,1.36,9.01,2.7,13.52,3.99,1.61.46,2.84,1.44,2.02,3.03-.38.73-2.29,1.28-3.26,1.01-7.48-2.1-14.86-4.52-22.35-6.6-1.82-.51-20.32-.55-22.13-.05-7.39,2.05-14.7,4.39-22.04,6.62-1.51.46-3.18,1.02-3.76-1.14-.55-2.06,1.06-2.58,2.61-3.04,4.69-1.38,9.39-2.75,14.08-4.15.89-.27,1.76-.62,2.64-.94.03-.28.06-.57.09-.85"/>
  <path class="cls-2" d="M555.62,372.02c-1.86,1.13-3.06,1.88-4.28,2.6-4.72,2.78-7.07,2.3-10.21-2.16-2.77-3.94-2.8-5.33-6.38.16-2.88,4.44-5.34,4.85-9.89,2.09q-4.64-2.81-5.82,2.7c-1.31,6.16-2.58,7.12-8.82,6.72-4.23-.27-4.35-.18-4.05,4.14.78,11.17,6.18,19.75,14.88,26.49,1.97,1.53,3.97,3.05,5.67,4.86,5.37,5.69,5.33,33.43-.16,39-2.41,2.45-5.27,4.44-7.89,6.69-7.66,6.58-11.99,14.85-12.5,25-.2,3.81.11,4.02,3.77,3.65,6.28-.63,7.76.46,9.12,6.67q1.19,5.43,5.96,2.63c4.09-2.4,6.5-2.06,9.06,1.2,1.22,1.56,2.51,3.07,3.77,4.6,1.37-1.52,2.78-3,4.09-4.57,2.6-3.13,4.66-3.59,8.3-1.66,1.19.63,2.29,1.4,3.44,2.09,1.45.87,2.34.47,2.68-1.19.33-1.6.61-3.21,1.02-4.78,1.12-4.3,3.21-5.68,7.56-5.1.67.09,1.34.12,2,.24,2.17.39,2.84-.54,2.84-2.67-.01-8.34-2.72-15.72-8.24-21.84-2.99-3.32-6.48-6.31-10.17-8.85-7.68-5.29-7.87-38.07.04-43.25,2.24-1.47,4.31-3.22,6.32-5,7.35-6.55,11.7-14.61,12.02-24.6.13-3.95.05-3.95-3.82-3.7-6.24.41-7.73-.77-8.99-6.94-.32-1.56-.78-3.08-1.33-5.19M502.14,387.27v-.29c-.11-6.69,1.22-7.87,7.95-7.07,3.88.46,4.14.26,4.96-3.62.3-1.41.54-2.84,1-4.19,1.32-3.92,3.95-4.97,7.67-3.13,1.95.97,4.11,3.06,5.74,2.69,1.66-.37,2.77-3.15,4.13-4.86,2.78-3.49,5.7-3.58,8.61-.19,1.49,1.74,2.62,4.64,4.37,5.05,1.68.4,3.93-1.79,5.98-2.75,3.63-1.72,6.17-.66,7.41,3.15.53,1.64.91,3.34,1.2,5.04.39,2.32,1.5,3.19,3.96,2.94,8.31-.83,9.26.17,8.8,8.45-.64,11.26-5.23,20.51-13.95,27.68-1.56,1.28-3.05,2.69-4.75,3.73-7.31,4.47-7.22,33.99.03,38.31,2.12,1.26,3.97,3.02,5.85,4.66,9.49,8.3,13.31,18.94,12.87,31.35-.09,2.46-1.32,3.8-3.62,4.02-1.61.16-3.29.14-4.86-.18-2.69-.54-3.93.51-4.38,3.09-.33,1.88-.75,3.78-1.43,5.56-1.18,3.09-3.4,4-6.46,2.69-1.57-.68-3.07-1.59-4.48-2.57-1.62-1.12-2.77-.9-3.8.75-.76,1.22-1.58,2.41-2.48,3.53-3.09,3.85-5.85,3.85-8.88.02-.95-1.2-1.82-2.48-2.66-3.76-.91-1.39-1.93-1.65-3.35-.68-1.43.96-2.9,1.9-4.46,2.61-3.22,1.48-5.69.44-6.82-2.89-.65-1.9-1.04-3.89-1.47-5.85-.41-1.87-1.3-2.73-3.4-2.57-9.16.72-9.58.34-9.16-8.75.57-12.13,6.2-21.55,15.69-28.85.99-.76,1.91-1.63,2.97-2.28,7.28-4.45,7.14-33.72.14-38.08-2.26-1.41-4.23-3.3-6.25-5.08-8.32-7.34-12.36-16.66-12.64-27.69"/>
  <path class="cls-2" d="M538.41,421.65c.32-.84.7-1.67.95-2.53,1.47-4.87,2.92-9.74,4.36-14.62.44-1.47,1.03-2.88,2.93-2.33,1.92.55,1.64,2.07,1.2,3.54-2.23,7.34-4.6,14.65-6.63,22.04-.54,1.98-.53,20.7.02,22.69,1.98,7.21,4.29,14.33,6.48,21.49.46,1.51,1.1,3.21-.91,3.9-2.18.76-2.73-.98-3.21-2.65-1.36-4.7-2.77-9.39-4.18-14.07-.28-.94-.67-1.86-1.01-2.78-.25,0-.49,0-.74,0-.46,1.3-.97,2.59-1.37,3.92-1.36,4.5-2.7,9.01-3.99,13.52-.46,1.61-1.44,2.84-3.03,2.02-.73-.38-1.28-2.29-1.01-3.26,2.1-7.48,4.52-14.86,6.6-22.34.51-1.81.55-20.32.05-22.13-2.05-7.39-4.39-14.7-6.62-22.04-.46-1.51-1.02-3.18,1.14-3.76,2.06-.55,2.58,1.06,3.04,2.61,1.38,4.69,2.75,9.39,4.15,14.08.27.89.62,1.76.93,2.64.28.03.57.06.85.09"/>
  <path class="cls-2" d="M668.46,690.91c.18.34.45.52.8.52s.71-.22,1.07-.65c.23-.25.59-.71,1.09-1.38.5-.66,1.03-1.34,1.61-2.04.57-.7,1.14-1.35,1.7-1.95.56-.6,1.01-.99,1.34-1.17-.1.15-.24.42-.4.8-.16.38-.32.8-.48,1.26-.15.46-.28.93-.38,1.41-.1.48-.13.92-.08,1.3.1.53.31.92.63,1.15s.68.34,1.09.34c.59,0,1.12-.18,1.6-.53.74-.51,1.4-1.04,1.99-1.61.59-.56,1.15-1.15,1.7-1.76.55-.61,1.09-1.24,1.64-1.89.55-.65,1.14-1.32,1.78-2.01.13-.15.14-.3.06-.44-.09-.14-.21-.21-.36-.21-.13,0-.23.05-.3.15-.64.71-1.32,1.49-2.05,2.33-.72.84-1.43,1.61-2.12,2.31-.69.7-1.31,1.29-1.87,1.76s-.99.7-1.3.7c-.2,0-.34-.13-.42-.38-.05-.23-.03-.55.08-.97.1-.42.24-.86.42-1.34.18-.47.37-.94.57-1.42.2-.47.36-.86.46-1.17.2-.59.23-1.09.07-1.53-.15-.43-.48-.65-.99-.65-.38,0-.79.13-1.22.38-.26.13-.55.38-.9.76-.34.38-.72.84-1.15,1.37-.42.54-.87,1.12-1.36,1.74-.49.63-.98,1.27-1.49,1.93.56-1.07,1.12-2.09,1.68-3.05.48-.82.98-1.64,1.49-2.48.51-.84.95-1.48,1.34-1.91.26-.28.28-.58.08-.9-.2-.32-.48-.48-.84-.48-.41,0-.76.23-1.07.69-.41.56-.87,1.25-1.38,2.06s-1.02,1.67-1.53,2.56c-.51.89-1,1.8-1.47,2.71-.47.91-.86,1.76-1.17,2.52-.15.41-.14.78.04,1.13M657.74,685.01c.29-.49.63-.94,1.01-1.38.38-.43.79-.8,1.22-1.09.43-.29.85-.44,1.26-.44.36,0,.63.13.8.38.18.26.23.57.15.95-.08.38-.31.8-.7,1.26-.4.46-.99.88-1.78,1.26-.38.18-.74.3-1.07.36-.33.07-.61.1-.84.1-.28,0-.52-.04-.72-.11.15-.38.38-.82.67-1.3M658.24,687.36c.52-.04,1.04-.15,1.57-.34.52-.19,1.03-.46,1.51-.8.48-.34.9-.78,1.26-1.32.43-.59.7-1.15.82-1.68.11-.53.1-1.01-.04-1.43-.14-.42-.38-.75-.72-.99-.34-.24-.78-.36-1.32-.36-.38,0-.81.08-1.28.23-.47.15-.97.41-1.51.76-1.05.66-1.88,1.51-2.5,2.54-.62,1.03-.99,2.07-1.09,3.11-.1,1.05.09,2.01.57,2.9s1.3,1.54,2.44,1.95c.23.08.47.14.71.19.24.05.49.08.74.08.76,0,1.54-.17,2.33-.5.79-.33,1.57-.76,2.35-1.3.78-.53,1.53-1.14,2.27-1.82.74-.67,1.43-1.37,2.08-2.08.65-.71,1.24-1.4,1.78-2.06.53-.66.98-1.24,1.34-1.72.13-.2.16-.37.1-.5-.06-.13-.17-.19-.32-.19s-.29.08-.42.23c-.2.28-.53.69-.97,1.22-.45.53-.96,1.13-1.55,1.78-.59.65-1.23,1.3-1.93,1.97-.7.66-1.43,1.27-2.18,1.82-.75.55-1.5,1-2.25,1.36-.75.36-1.47.53-2.16.53-.43,0-.84-.08-1.22-.23-.84-.36-1.39-.83-1.64-1.41-.25-.59-.33-1.25-.23-1.99.46.08.95.1,1.47.06M642.66,671.54c.98-1.77,2.01-3.53,3.09-5.29,1.08-1.76,2.18-3.44,3.3-5.06,1.12-1.62,2.22-3.04,3.3-4.26,1.08-1.22,2.13-2.2,3.15-2.94,1.02-.74,1.96-1.11,2.83-1.11.36,0,.65.05.88.15.92.36,1.51,1.04,1.78,2.06.27,1.02.2,2.23-.19,3.65-.4,1.42-1.12,2.95-2.18,4.6-1.06,1.66-2.45,3.3-4.18,4.93-1.73,1.63-3.8,3.17-6.21,4.62-2.41,1.45-5.15,2.67-8.23,3.67.79-1.58,1.67-3.25,2.65-5.02M648.4,673.99c2.65-1.57,4.92-3.25,6.82-5.06,1.9-1.81,3.42-3.64,4.58-5.5,1.16-1.86,1.93-3.6,2.31-5.21.38-1.62.37-3.02-.04-4.22-.41-1.2-1.22-2.01-2.44-2.44-.41-.15-.84-.23-1.3-.23-1.2,0-2.47.47-3.82,1.41-1.35.94-2.73,2.21-4.12,3.8-1.4,1.59-2.81,3.42-4.22,5.48-1.41,2.06-2.77,4.22-4.07,6.47-1.3,2.25-2.52,4.53-3.67,6.82-1.15,2.29-2.15,4.44-3.02,6.44-.87,2-1.57,3.8-2.12,5.39-.55,1.59-.89,2.8-1.01,3.65-.05.36.05.63.29.82.24.19.49.29.74.29.31,0,.5-.1.57-.31.61-1.42,1.26-2.7,1.95-3.82.68-1.12,1.41-2.13,2.16-3.04.75-.9,1.53-1.71,2.33-2.43.8-.71,1.64-1.38,2.5-1.99.74-.53,1.39-.8,1.95-.8.25,0,.42.1.5.3.07.2.01.56-.19,1.07-.36.84-.8,1.8-1.32,2.88-.52,1.08-.97,2.16-1.34,3.25-.37,1.08-.59,2.11-.67,3.09-.08.98.15,1.81.69,2.5.59.74,1.35,1.11,2.29,1.11s1.94-.33,3.06-.99c1.12-.66,2.23-1.52,3.32-2.58,1.09-1.05,2.13-2.23,3.11-3.53.98-1.3,1.81-2.6,2.5-3.9.15-.31.23-.54.23-.71s-.05-.26-.15-.28c-.1-.03-.23.01-.38.11-.15.1-.3.27-.42.5-.61,1.12-1.4,2.29-2.37,3.51-.97,1.22-1.97,2.34-3.02,3.36-1.04,1.02-2.06,1.86-3.05,2.52-.99.66-1.81.99-2.44.99-.18,0-.37-.05-.57-.15-.61-.33-.9-.89-.88-1.66s.2-1.66.53-2.65c.33-.99.75-2.04,1.26-3.13.51-1.09.95-2.13,1.32-3.11.37-.98.59-1.84.67-2.6.08-.75-.14-1.28-.65-1.59-.25-.15-.55-.23-.88-.23-.61,0-1.32.23-2.14.69-.82.46-1.65,1.04-2.52,1.74-.87.7-1.72,1.47-2.58,2.29-.85.83-1.62,1.61-2.31,2.35-.08.07-.07-.04.04-.34.1-.31.29-.76.55-1.38.27-.61.61-1.35,1.01-2.22.41-.86.88-1.83,1.42-2.9,3.36-.99,6.37-2.27,9.01-3.84M628.62,681.48c.08-.24.1-.51.08-.8-.03-.29-.13-.57-.31-.84-.18-.27-.48-.46-.92-.59-.43-.13-.83-.19-1.19-.19-.66,0-1.35.14-2.06.42-.71.28-1.38.67-2,1.16-.63.5-1.19,1.07-1.7,1.72-.51.65-.88,1.36-1.11,2.12-.28.84-.4,1.67-.34,2.48.05.82.25,1.53.59,2.16.34.63.84,1.13,1.47,1.51.64.38,1.4.57,2.29.57,1.2,0,2.36-.28,3.48-.84,1.12-.56,2.18-1.26,3.19-2.1,1-.84,1.93-1.76,2.77-2.75.84-.99,1.58-1.92,2.22-2.79.1-.13.09-.27-.02-.42-.11-.15-.25-.23-.4-.23-.1,0-.19.05-.27.15-1.76,2.55-3.43,4.4-5.02,5.56-1.59,1.16-2.95,1.84-4.07,2.04-.92.18-1.68.15-2.29-.08-.61-.23-1.07-.59-1.38-1.09-.3-.5-.47-1.07-.5-1.74-.02-.66.09-1.34.34-2.03.23-.64.55-1.22.96-1.76.41-.53.84-.99,1.32-1.38.47-.38.94-.68,1.42-.9.47-.22.88-.32,1.24-.32.33,0,.57.09.73.27.1.1.18.26.23.46.05.2.1.36.15.46.13.23.28.34.46.32.18-.01.29-.05.34-.1.13-.08.23-.24.3-.48M620.71,658.2c.2-.15.37-.37.49-.65.1-.2.18-.43.23-.67.05-.24.07-.47.06-.67-.01-.2-.06-.38-.13-.52-.08-.14-.19-.21-.34-.21-.2,0-.45.14-.72.42-.43.48-1.2,1.48-2.29,2.98-1.09,1.5-2.36,3.31-3.78,5.42-2.47.48-4.83.97-7.07,1.47-2.24.49-4.25.97-6.04,1.43-.48.13-.99.25-1.53.38-.53.13-1.05.25-1.57.36-.51.11-.97.21-1.39.29-.42.08-.76.11-1.01.11-.38,0-.54-.09-.46-.27.05-.1-.02-.22-.21-.34-.19-.13-.44-.19-.74-.19-.2,0-.46.06-.76.19-.36.18-.57.43-.63.74-.07.32-.02.58.13.78.25.38.75.57,1.49.57.48,0,1.04-.06,1.68-.19.64-.13,1.29-.27,1.95-.42.33-.08.96-.22,1.89-.44.93-.22,2.07-.49,3.42-.8,1.35-.32,2.87-.67,4.56-1.07,1.69-.39,3.48-.8,5.37-1.2-1.22,1.88-2.49,3.91-3.8,6.07-1.31,2.16-2.57,4.35-3.78,6.57-1.21,2.21-2.32,4.4-3.32,6.57-1,2.16-1.82,4.18-2.44,6.05-.62,1.87-1.01,3.55-1.15,5.02-.14,1.47.06,2.63.59,3.48.56.86,1.3,1.3,2.22,1.3.84,0,1.8-.32,2.86-.95,1.07-.64,2.18-1.47,3.34-2.5,1.16-1.03,2.32-2.19,3.5-3.49,1.17-1.3,2.3-2.62,3.38-3.96,1.08-1.34,2.07-2.63,2.98-3.9.9-1.26,1.66-2.35,2.27-3.27.13-.2.16-.37.09-.51-.06-.14-.16-.21-.28-.21-.2,0-.36.1-.46.3-1.6,2.44-3.28,4.71-5.02,6.8-1.74,2.09-3.41,3.9-5,5.42-1.59,1.53-3.04,2.73-4.34,3.61-1.3.88-2.32,1.32-3.05,1.32-.53,0-.88-.24-1.03-.72-.23-.69-.23-1.69,0-3,.23-1.31.65-2.83,1.26-4.56.61-1.73,1.38-3.63,2.31-5.71.93-2.07,1.98-4.23,3.15-6.47,1.17-2.24,2.43-4.53,3.78-6.88,1.35-2.34,2.75-4.63,4.2-6.87,2.06-.43,4.17-.85,6.32-1.26,2.15-.41,4.26-.76,6.32-1.07,2.06-.31,4.04-.55,5.92-.74,1.88-.19,3.59-.29,5.12-.29.69,0,1.33.02,1.93.06.6.04,1.15.11,1.66.21.43.08.64,0,.61-.21s-.22-.39-.57-.51c-.79-.23-1.98-.34-3.55-.34-1.32,0-2.86.08-4.6.23-1.74.15-3.62.36-5.62.61-2,.26-4.08.55-6.25.9-2.16.34-4.32.72-6.45,1.13.66-.99,1.32-1.97,1.97-2.92.65-.95,1.3-1.88,1.97-2.77.05.13.18.11.38-.04M591.55,680.49c-.14-.39-.43-.59-.86-.59-.15,0-.38.07-.69.19-.18.07-.5.4-.95.95-.46.56-.94,1.25-1.45,2.06-.51.82-.98,1.71-1.42,2.67-.43.97-.7,1.9-.8,2.81-.1.9.01,1.71.34,2.43.33.71,1.01,1.23,2.03,1.57.23.08.49.11.8.11.71,0,1.53-.22,2.46-.67.93-.45,1.88-1,2.86-1.66.98-.66,1.96-1.4,2.94-2.21.98-.82,1.88-1.59,2.69-2.33.81-.74,1.52-1.4,2.12-1.97.6-.57,1.01-.95,1.24-1.13.1-.08.15-.17.13-.29-.01-.11-.05-.21-.11-.29-.06-.07-.15-.13-.25-.15-.1-.03-.2.01-.31.11-.36.33-.86.78-1.51,1.36-.65.57-1.39,1.2-2.21,1.87-.83.67-1.69,1.36-2.6,2.04-.91.69-1.8,1.32-2.67,1.89-.88.57-1.7,1.04-2.46,1.4-.76.36-1.42.53-1.95.53-.38,0-.67-.09-.88-.27-.46-.43-.67-1.02-.65-1.76.03-.74.21-1.55.55-2.43.34-.88.82-1.78,1.42-2.69.6-.92,1.25-1.76,1.97-2.52.28-.3.35-.65.21-1.05M592.94,676.21c.05.17.14.31.28.44.14.13.29.22.46.29.16.06.3.07.4.02.2-.1.43-.26.67-.48.24-.22.49-.46.74-.72.26-.27.48-.53.69-.8.2-.27.34-.49.42-.67.13-.3.05-.61-.25-.91-.29-.31-.59-.47-.9-.5-.23-.05-.45.01-.67.19-.22.18-.43.41-.65.69-.22.28-.43.6-.63.95-.2.36-.38.7-.53,1.03-.08.15-.09.31-.04.48M549.26,687.53c-.98.33-1.71.49-2.2.49-.28,0-.44-.06-.49-.19-.05-.13.06-.29.34-.5.59-.43,1.42-.93,2.5-1.49,1.08-.56,2.37-.99,3.88-1.3-.1.2-.2.41-.29.63-.09.22-.17.44-.25.67-1.35.79-2.51,1.35-3.5,1.68M555.05,684.32l.04-.08h.08l-.11.08ZM576.65,643.43c-.29.47-.74,1.19-1.36,2.16-.61.97-1.35,2.13-2.22,3.48-.87,1.35-1.8,2.81-2.79,4.39,1.3-2.27,2.5-4.28,3.59-6.04,1.09-1.76,2.09-3.22,2.98-4.39.15-.2.08-.07-.21.4M594.03,644.45c-.01-.41-.2-.61-.55-.61s-.75.2-1.19.61c-.26.23-.81.81-1.66,1.76-.85.94-1.92,2.13-3.19,3.55-1.27,1.43-2.71,3.04-4.3,4.85-1.59,1.81-3.25,3.69-4.98,5.64-1.73,1.95-3.5,3.91-5.29,5.9-1.8,1.99-3.52,3.88-5.16,5.69-1.64,1.81-3.17,3.47-4.58,4.98-1.41,1.52-2.63,2.77-3.65,3.76-.36.36-.71.7-1.05,1.01-.34.32-.69.62-1.05.9-.25-.02-.51-.03-.76-.02-.26.01-.51.02-.76.02,1.63-3.69,3.24-7.2,4.83-10.54,1.59-3.33,3.15-6.47,4.68-9.39,1.38-1.99,2.73-3.94,4.07-5.85,1.34-1.91,2.57-3.71,3.71-5.39,1.13-1.68,2.13-3.19,2.98-4.55.85-1.35,1.48-2.46,1.89-3.32.46-.97.57-1.73.34-2.29-.23-.56-.64-.84-1.22-.84-.38,0-.81.14-1.28.44-.47.3-.93.76-1.39,1.4-.59.82-1.3,1.94-2.16,3.38-.85,1.44-1.81,3.14-2.86,5.1-1.06,1.96-2.2,4.14-3.42,6.55-1.22,2.41-2.49,4.98-3.8,7.72-1.31,2.74-2.65,5.6-4.03,8.59-1.38,2.99-2.74,6.05-4.09,9.19-2.65.38-5.19,1.35-7.64,2.9-.79.51-1.36,1.03-1.72,1.55-.36.52-.51.99-.48,1.41.04.42.27.74.69.97.42.23,1.03.3,1.82.23,1.58-.18,3.27-.76,5.08-1.76-1.71,4.1-3.33,8.18-4.87,12.24-1.54,4.06-2.94,8.01-4.18,11.86-.13.36-.14.65-.04.88.1.23.26.34.46.34.33,0,.59-.27.76-.8,1.61-4.53,3.25-8.96,4.93-13.27,1.68-4.31,3.4-8.51,5.16-12.59.53-.36,1.08-.74,1.62-1.16.55-.42,1.11-.86,1.7-1.32,1.2.03,2.46.19,3.8.5,1.34.3,2.73.8,4.18,1.49,1.45.69,2.95,1.59,4.51,2.71,1.55,1.12,3.13,2.52,4.74,4.2,3.26,3.36,6.18,6.19,8.75,8.48,2.57,2.29,4.88,4.14,6.93,5.56,2.05,1.42,3.86,2.43,5.44,3.04,1.58.61,3.02.92,4.32.92.81,0,1.59-.11,2.31-.33.72-.22,1.42-.51,2.08-.9.48-.28.76-.61.84-.97.08-.37-.05-.55-.38-.55-.28,0-.61.14-.99.42-.89.64-1.95.95-3.17.95-1.58,0-3.34-.49-5.29-1.47-1.95-.98-4-2.29-6.15-3.93-2.15-1.64-4.35-3.52-6.59-5.62-2.24-2.1-4.46-4.29-6.65-6.55-2.85-2.93-5.69-5.16-8.52-6.69-2.83-1.53-5.62-2.47-8.37-2.82,1.76-1.55,3.55-3.29,5.37-5.19,1.82-1.91,3.67-3.92,5.56-6.04,1.88-2.11,3.79-4.29,5.71-6.53,1.92-2.24,3.86-4.46,5.81-6.66,1.95-2.2,3.9-4.36,5.85-6.48,1.95-2.11,3.89-4.09,5.83-5.92.51-.48.76-.93.74-1.34M517.65,690.91c.18.34.45.52.8.52s.71-.22,1.07-.65c.23-.25.59-.71,1.09-1.38.5-.66,1.03-1.34,1.6-2.04.57-.7,1.14-1.35,1.7-1.95.56-.6,1.01-.99,1.34-1.17-.1.15-.24.42-.4.8-.16.38-.32.8-.48,1.26-.15.46-.28.93-.38,1.41-.1.48-.13.92-.08,1.3.1.53.31.92.63,1.15.32.23.68.34,1.09.34.59,0,1.12-.18,1.6-.53.74-.51,1.4-1.04,1.99-1.61.59-.56,1.15-1.15,1.7-1.76.55-.61,1.09-1.24,1.64-1.89.55-.65,1.14-1.32,1.78-2.01.13-.15.15-.3.06-.44-.09-.14-.21-.21-.36-.21-.13,0-.23.05-.31.15-.64.71-1.32,1.49-2.04,2.33-.72.84-1.43,1.61-2.12,2.31-.69.7-1.31,1.29-1.87,1.76-.56.47-.99.7-1.3.7-.2,0-.34-.13-.42-.38-.05-.23-.03-.55.08-.97.1-.42.24-.86.42-1.34.18-.47.37-.94.57-1.42.2-.47.36-.86.46-1.17.2-.59.23-1.09.08-1.53-.15-.43-.48-.65-.99-.65-.38,0-.79.13-1.22.38-.25.13-.55.38-.9.76-.34.38-.73.84-1.15,1.37-.42.54-.87,1.12-1.36,1.74-.48.63-.98,1.27-1.49,1.93.56-1.07,1.12-2.09,1.68-3.05.48-.82.98-1.64,1.49-2.48.51-.84.95-1.48,1.34-1.91.25-.28.28-.58.08-.9-.2-.32-.48-.48-.84-.48-.41,0-.76.23-1.07.69-.41.56-.87,1.25-1.38,2.06-.51.82-1.02,1.67-1.53,2.56-.51.89-1,1.8-1.47,2.71-.47.91-.86,1.76-1.17,2.52-.15.41-.14.78.04,1.13M511.37,684.74c-.5.82-1.01,1.52-1.55,2.1s-1.07,1.04-1.59,1.36c-.52.32-.95.48-1.28.48-.43,0-.64-.28-.61-.84.05-.56.24-1.15.55-1.78.32-.62.7-1.22,1.13-1.8.43-.57.9-1.09,1.41-1.57.51-.47.99-.85,1.45-1.13.31-.2.63-.31.95-.31.28,0,.48.07.61.21.13.14.15.34.08.59-.28.97-.67,1.86-1.17,2.67M515.26,681.73c-.01-.2-.06-.39-.15-.57-.09-.18-.22-.32-.38-.42s-.34-.15-.52-.15c-.2,0-.38.07-.51.21-.14.14-.26.29-.36.44-.05-.13-.11-.24-.17-.34-.07-.1-.15-.19-.25-.27-.43-.41-.98-.61-1.64-.61s-1.32.19-2.04.57c-.72.38-1.4.9-2.02,1.57-.63.66-1.16,1.43-1.61,2.29-.44.87-.72,1.78-.82,2.75-.1.89.08,1.55.54,1.97.46.42,1.01.63,1.64.63.41,0,.81-.09,1.22-.27.41-.18.8-.41,1.17-.69.37-.28.71-.59,1.03-.92.32-.33.6-.65.86-.95.08.76.32,1.32.74,1.68.42.36.92.54,1.51.54.74,0,1.46-.24,2.18-.71.71-.47,1.38-1.04,2.01-1.72.62-.67,1.2-1.38,1.72-2.12.52-.74.96-1.38,1.32-1.91.13-.15.14-.31.04-.46-.1-.15-.22-.23-.34-.23-.1,0-.19.04-.27.11-.05.05-.2.26-.44.63-.24.37-.55.8-.92,1.3-.37.5-.78,1.03-1.24,1.59-.46.56-.93,1.06-1.41,1.49-.33.31-.72.57-1.17.78-.45.22-.85.32-1.2.32s-.64-.12-.86-.36c-.22-.24-.28-.65-.17-1.24.05-.28.16-.62.34-1.03.18-.41.4-.82.65-1.22.25-.41.51-.8.76-1.17.25-.37.46-.67.61-.9.13-.2.18-.41.17-.61M494.9,680.49c-.14-.39-.43-.59-.86-.59-.15,0-.38.07-.69.19-.18.07-.49.4-.95.95-.46.56-.94,1.25-1.45,2.06-.51.82-.98,1.71-1.42,2.67-.43.97-.7,1.9-.8,2.81-.1.9.01,1.71.34,2.43.33.71,1.01,1.23,2.02,1.57.23.08.5.11.8.11.71,0,1.53-.22,2.46-.67.93-.45,1.88-1,2.86-1.66.98-.66,1.96-1.4,2.94-2.21.98-.82,1.88-1.59,2.69-2.33.82-.74,1.52-1.4,2.12-1.97.6-.57,1.01-.95,1.24-1.13.1-.08.15-.17.13-.29-.01-.11-.05-.21-.11-.29-.07-.07-.15-.13-.25-.15-.1-.03-.2.01-.31.11-.36.33-.86.78-1.51,1.36-.65.57-1.39,1.2-2.22,1.87-.83.67-1.69,1.36-2.6,2.04-.9.69-1.79,1.32-2.67,1.89-.88.57-1.7,1.04-2.46,1.4-.76.36-1.42.53-1.95.53-.38,0-.68-.09-.88-.27-.46-.43-.67-1.02-.65-1.76.03-.74.21-1.55.55-2.43.34-.88.82-1.78,1.42-2.69.6-.92,1.25-1.76,1.97-2.52.28-.3.35-.65.21-1.05M496.3,676.21c.05.17.15.31.29.44.14.13.29.22.46.29.17.06.3.07.4.02.2-.1.43-.26.67-.48.24-.22.49-.46.74-.72.25-.27.48-.53.69-.8.2-.27.34-.49.42-.67.13-.3.04-.61-.25-.91-.29-.31-.59-.47-.9-.5-.23-.05-.45.01-.67.19-.22.18-.43.41-.65.69-.22.28-.43.6-.63.95-.2.36-.38.7-.53,1.03-.08.15-.09.31-.04.48M476.99,681.44c.98-2.03,2.07-4.1,3.27-6.23,1.2-2.13,2.48-4.25,3.86-6.36,1.38-2.11,2.75-4.13,4.13-6.06,1.38-1.92,2.72-3.69,4.03-5.31,1.31-1.62,2.53-2.99,3.65-4.11.92-.92,1.77-1.65,2.56-2.2.79-.55,1.44-.82,1.95-.82.66,0,1.05.51,1.17,1.55.11,1.03-.16,2.76-.82,5.18-.36,1.32-.93,2.82-1.74,4.49-.8,1.67-1.79,3.42-2.98,5.25-1.19,1.83-2.54,3.7-4.07,5.6-1.53,1.9-3.19,3.74-5,5.52-1.81,1.78-3.75,3.46-5.83,5.02-2.08,1.57-4.26,2.94-6.55,4.11.61-1.73,1.41-3.61,2.39-5.63M481.08,684c2.18-1.62,4.21-3.33,6.11-5.14,1.9-1.81,3.63-3.68,5.21-5.61,1.58-1.94,2.99-3.84,4.22-5.71,1.23-1.87,2.28-3.68,3.13-5.42.85-1.74,1.49-3.33,1.93-4.75.89-3.08,1.17-5.32.84-6.72-.33-1.4-1.04-2.1-2.14-2.1-.76,0-1.66.3-2.67.91-1.02.61-2.1,1.49-3.25,2.64-.48.51-1.16,1.28-2.02,2.31-.87,1.03-1.84,2.25-2.92,3.65-1.08,1.4-2.24,2.97-3.48,4.7-1.23,1.73-2.48,3.53-3.72,5.41-1.25,1.87-2.46,3.79-3.63,5.77-1.17,1.97-2.24,3.91-3.19,5.81-.95,1.9-1.76,3.73-2.42,5.5-.66,1.77-1.11,3.4-1.34,4.89-.23,1.49-.2,2.8.08,3.93.28,1.13.89,2.01,1.84,2.62.56.36,1.2.53,1.91.53.79,0,1.69-.24,2.71-.72,1.02-.48,2.15-1.29,3.4-2.43,1.25-1.13,2.6-2.62,4.07-4.47,1.46-1.85,3.04-4.13,4.72-6.86.08-.13.05-.24-.08-.32-.13-.09-.26-.13-.38-.13s-.23.04-.3.11c-1.78,2.83-3.4,5.12-4.85,6.88-1.45,1.76-2.75,3.13-3.9,4.12-1.15.99-2.15,1.67-3,2.03-.86.36-1.56.53-2.12.53-.38,0-.7-.05-.95-.15-.26-.1-.45-.22-.57-.34-.64-.59-.94-1.5-.92-2.75.03-1.25.31-2.72.84-4.43,2.39-1.22,4.68-2.64,6.86-4.26M464.27,684.74c-.5.82-1.01,1.52-1.55,2.1-.53.59-1.06,1.04-1.59,1.36-.52.32-.95.48-1.28.48-.43,0-.64-.28-.61-.84.05-.56.24-1.15.55-1.78.32-.62.69-1.22,1.13-1.8.43-.57.9-1.09,1.42-1.57.51-.47.99-.85,1.45-1.13.3-.2.62-.31.95-.31.28,0,.48.07.61.21.13.14.15.34.08.59-.28.97-.67,1.86-1.17,2.67M468.17,681.73c-.01-.2-.07-.39-.15-.57-.09-.18-.22-.32-.38-.42-.16-.1-.34-.15-.51-.15-.2,0-.38.07-.51.21-.14.14-.26.29-.36.44-.05-.13-.11-.24-.17-.34-.06-.1-.14-.19-.25-.27-.43-.41-.98-.61-1.64-.61s-1.32.19-2.04.57c-.73.38-1.4.9-2.03,1.57-.62.66-1.16,1.43-1.6,2.29-.45.87-.72,1.78-.82,2.75-.1.89.08,1.55.53,1.97.46.42,1.01.63,1.64.63.41,0,.82-.09,1.22-.27.41-.18.8-.41,1.17-.69.37-.28.71-.59,1.03-.92.32-.33.61-.65.86-.95.07.76.32,1.32.74,1.68.42.36.92.54,1.51.54.74,0,1.46-.24,2.18-.71.71-.47,1.38-1.04,2-1.72.63-.67,1.2-1.38,1.72-2.12.52-.74.96-1.38,1.32-1.91.13-.15.14-.31.04-.46-.1-.15-.22-.23-.34-.23-.1,0-.19.04-.27.11-.05.05-.2.26-.44.63-.24.37-.55.8-.92,1.3-.37.5-.78,1.03-1.24,1.59-.46.56-.93,1.06-1.41,1.49-.33.31-.72.57-1.17.78-.45.22-.85.32-1.2.32s-.65-.12-.86-.36c-.22-.24-.27-.65-.17-1.24.05-.28.16-.62.34-1.03.18-.41.4-.82.65-1.22.26-.41.51-.8.76-1.17.26-.37.46-.67.61-.9.13-.2.18-.41.17-.61M460.05,658.2c.2-.15.37-.37.5-.65.1-.2.18-.43.23-.67.05-.24.07-.47.06-.67-.01-.2-.06-.38-.13-.52-.08-.14-.19-.21-.34-.21-.2,0-.45.14-.73.42-.43.48-1.2,1.48-2.29,2.98-1.09,1.5-2.36,3.31-3.78,5.42-2.47.48-4.83.97-7.06,1.47-2.24.49-4.25.97-6.04,1.43-.48.13-.99.25-1.53.38-.53.13-1.06.25-1.57.36-.51.11-.97.21-1.4.29-.42.08-.76.11-1.01.11-.38,0-.53-.09-.46-.27.05-.1-.02-.22-.21-.34-.19-.13-.44-.19-.74-.19-.2,0-.46.06-.76.19-.36.18-.57.43-.63.74-.06.32-.02.58.13.78.26.38.75.57,1.49.57.49,0,1.05-.06,1.68-.19.64-.13,1.29-.27,1.95-.42.33-.08.96-.22,1.89-.44.93-.22,2.07-.49,3.42-.8,1.35-.32,2.87-.67,4.56-1.07,1.69-.39,3.48-.8,5.37-1.2-1.22,1.88-2.49,3.91-3.8,6.07-1.31,2.16-2.57,4.35-3.78,6.57-1.21,2.21-2.32,4.4-3.32,6.57-1.01,2.16-1.82,4.18-2.44,6.05-.63,1.87-1.01,3.55-1.15,5.02-.14,1.47.06,2.63.59,3.48.56.86,1.3,1.3,2.21,1.3.84,0,1.8-.32,2.87-.95,1.07-.64,2.18-1.47,3.34-2.5,1.16-1.03,2.32-2.19,3.5-3.49,1.17-1.3,2.3-2.62,3.38-3.96,1.08-1.34,2.07-2.63,2.98-3.9.9-1.26,1.66-2.35,2.27-3.27.13-.2.16-.37.1-.51-.06-.14-.16-.21-.29-.21-.2,0-.36.1-.46.3-1.61,2.44-3.28,4.71-5.02,6.8-1.74,2.09-3.41,3.9-5,5.42-1.59,1.53-3.04,2.73-4.34,3.61-1.3.88-2.32,1.32-3.05,1.32-.54,0-.88-.24-1.03-.72-.23-.69-.23-1.69,0-3,.23-1.31.65-2.83,1.26-4.56.61-1.73,1.38-3.63,2.31-5.71.93-2.07,1.98-4.23,3.15-6.47,1.17-2.24,2.43-4.53,3.78-6.88,1.35-2.34,2.75-4.63,4.2-6.87,2.06-.43,4.17-.85,6.32-1.26,2.15-.41,4.26-.76,6.32-1.07,2.06-.31,4.04-.55,5.92-.74,1.88-.19,3.59-.29,5.12-.29.69,0,1.33.02,1.93.06.6.04,1.15.11,1.66.21.43.08.64,0,.61-.21s-.22-.39-.57-.51c-.79-.23-1.97-.34-3.55-.34-1.32,0-2.86.08-4.6.23-1.74.15-3.62.36-5.62.61-2,.26-4.08.55-6.25.9-2.17.34-4.32.72-6.46,1.13.66-.99,1.32-1.97,1.97-2.92.65-.95,1.3-1.88,1.97-2.77.05.13.18.11.38-.04M442.06,653.25c.33-.78.68-1.58,1.05-2.41.37-.83.75-1.64,1.15-2.44.4-.8.76-1.53,1.09-2.18.33-.65.62-1.19.86-1.61.24-.42.41-.66.51-.71.05-.02-.05.24-.3.78-.26.55-.63,1.32-1.11,2.31-.48.99-1.07,2.19-1.76,3.59-.69,1.4-1.45,2.97-2.29,4.7.2-.59.47-1.27.8-2.04M414.78,715.42c.18-.3.29-.6.34-.88,1.68-.18,3.36-.36,5.02-.53,1.67-.18,3.26-.34,4.77-.5,1.51-.15,2.93-.27,4.24-.36,1.31-.09,2.44-.13,3.38-.13.79,0,1.44.03,1.95.1.51.06.86.18,1.07.36.2.15.28.26.23.32-.05.06-.07.15-.04.25.05.13.1.19.15.19.08,0,.17-.06.29-.17.11-.11.2-.26.25-.44.05-.18.08-.37.08-.57s-.08-.38-.23-.54c-.2-.28-.68-.47-1.43-.57-.75-.1-1.7-.15-2.85-.15-.99,0-2.11.03-3.36.1-1.25.06-2.57.15-3.95.27-1.39.11-2.84.24-4.35.36-1.51.13-3.04.26-4.57.38.89-2.24,2.02-4.85,3.38-7.81,1.36-2.97,2.87-6.14,4.53-9.53,1.65-3.39,3.39-6.91,5.21-10.58,1.82-3.67,3.63-7.31,5.44-10.92,1.81-3.62,3.55-7.14,5.23-10.56,1.68-3.42,3.2-6.6,4.56-9.51,1.36-2.92,2.51-5.5,3.44-7.75.93-2.26,1.55-4.02,1.85-5.29,1.78-.26,3.54-.5,5.29-.74,1.74-.24,3.42-.45,5.02-.63,1.6-.18,3.11-.32,4.53-.44,1.41-.11,2.68-.17,3.8-.17.92,0,1.73.04,2.44.11.71.08,1.29.22,1.72.42.38.15.67.23.88.23s.34-.05.4-.15c.07-.1.08-.23.04-.38-.04-.15-.13-.31-.27-.46-.14-.15-.32-.28-.55-.38-.46-.23-1.09-.39-1.91-.5-.82-.1-1.76-.15-2.83-.15-2.32,0-5.08.17-8.29.52-3.21.34-6.58.73-10.12,1.17-.05-.26-.13-.42-.23-.5-.41-.25-.98-.01-1.72.72-1.76.2-3.51.41-5.25.61-1.74.2-3.43.38-5.06.53-1.63.15-3.19.27-4.68.36-1.49.09-2.86.13-4.11.13-1.02,0-1.94-.03-2.77-.09-.83-.06-1.55-.17-2.16-.32-.48-.13-.87-.11-1.15.06-.28.16-.45.39-.5.69-.05.29.03.59.23.88.2.29.55.51,1.03.67.46.13,1,.22,1.64.29.63.06,1.36.1,2.18.1,1.17,0,2.48-.06,3.93-.17s3-.27,4.64-.46c1.64-.19,3.36-.41,5.16-.67,1.8-.25,3.61-.51,5.44-.76-.64.94-1.32,2.13-2.06,3.57-.74,1.44-1.43,2.94-2.06,4.51-.64,1.57-1.17,3.11-1.61,4.64-.43,1.53-.65,2.86-.65,4.01-1.35,2.75-2.83,5.77-4.45,9.07-1.62,3.3-3.27,6.68-4.95,10.14-1.68,3.46-3.36,6.93-5.04,10.41-1.68,3.48-3.26,6.79-4.74,9.93-1.48,3.14-2.81,6.04-3.99,8.69-1.18,2.65-2.15,4.86-2.88,6.65-1.96.15-3.86.28-5.71.38-1.85.1-3.55.15-5.1.15s-2.94-.07-4.09-.19c-1.15-.13-2.01-.36-2.6-.69-.33-.18-.63-.21-.9-.1-.27.11-.46.31-.57.57-.12.27-.12.57,0,.9.11.33.39.61.82.84.43.26,1.09.43,1.97.53.88.1,1.92.15,3.11.15,1.68,0,3.59-.08,5.73-.25,2.14-.17,4.36-.36,6.68-.59-.05.36.01.63.19.82.18.19.4.29.65.29.36,0,.62-.15.8-.46"/>
</svg>